<?xml version="1.0" encoding="UTF-8"?>
<svg xmlns="http://www.w3.org/2000/svg" xmlns:xlink="http://www.w3.org/1999/xlink" width="576" height="432" viewBox="0 0 576 432">
<defs>
<g>
<g id="glyph-0-0">
<path d="M 0.332031 -2.824219 C 0.332031 -3.5 0.402344 -4.046875 0.539062 -4.460938 C 0.679688 -4.871094 0.886719 -5.191406 1.164062 -5.414062 C 1.4375 -5.636719 1.78125 -5.75 2.199219 -5.75 C 2.507812 -5.75 2.777344 -5.6875 3.007812 -5.5625 C 3.238281 -5.441406 3.429688 -5.261719 3.582031 -5.03125 C 3.734375 -4.796875 3.851562 -4.511719 3.9375 -4.179688 C 4.023438 -3.84375 4.066406 -3.390625 4.066406 -2.824219 C 4.066406 -2.152344 3.996094 -1.609375 3.859375 -1.195312 C 3.722656 -0.785156 3.515625 -0.464844 3.242188 -0.242188 C 2.964844 -0.015625 2.617188 0.0976562 2.199219 0.0976562 C 1.648438 0.0976562 1.214844 -0.101562 0.898438 -0.496094 C 0.519531 -0.972656 0.332031 -1.75 0.332031 -2.824219 M 1.054688 -2.824219 C 1.054688 -1.882812 1.164062 -1.257812 1.382812 -0.945312 C 1.605469 -0.636719 1.875 -0.480469 2.199219 -0.480469 C 2.523438 -0.480469 2.792969 -0.636719 3.015625 -0.949219 C 3.234375 -1.261719 3.34375 -1.886719 3.34375 -2.824219 C 3.34375 -3.765625 3.234375 -4.394531 3.015625 -4.703125 C 2.792969 -5.011719 2.519531 -5.167969 2.191406 -5.167969 C 1.867188 -5.167969 1.609375 -5.03125 1.417969 -4.757812 C 1.175781 -4.410156 1.054688 -3.765625 1.054688 -2.824219 Z M 1.054688 -2.824219 "/>
</g>
<g id="glyph-0-1">
<path d="M 4.027344 -0.675781 L 4.027344 0 L 0.242188 0 C 0.238281 -0.167969 0.265625 -0.332031 0.324219 -0.488281 C 0.421875 -0.746094 0.574219 -1 0.789062 -1.25 C 1 -1.5 1.304688 -1.789062 1.707031 -2.117188 C 2.328125 -2.628906 2.75 -3.03125 2.96875 -3.328125 C 3.1875 -3.628906 3.296875 -3.910156 3.296875 -4.175781 C 3.296875 -4.453125 3.195312 -4.6875 3 -4.882812 C 2.796875 -5.070312 2.539062 -5.167969 2.21875 -5.167969 C 1.878906 -5.167969 1.609375 -5.066406 1.40625 -4.863281 C 1.203125 -4.660156 1.101562 -4.378906 1.097656 -4.019531 L 0.375 -4.09375 C 0.425781 -4.632812 0.609375 -5.042969 0.933594 -5.328125 C 1.257812 -5.609375 1.691406 -5.75 2.234375 -5.75 C 2.785156 -5.75 3.21875 -5.597656 3.539062 -5.292969 C 3.859375 -4.988281 4.019531 -4.609375 4.019531 -4.160156 C 4.019531 -3.929688 3.972656 -3.707031 3.878906 -3.484375 C 3.785156 -3.261719 3.628906 -3.03125 3.414062 -2.785156 C 3.195312 -2.539062 2.832031 -2.203125 2.328125 -1.777344 C 1.90625 -1.421875 1.636719 -1.183594 1.515625 -1.054688 C 1.394531 -0.929688 1.296875 -0.804688 1.21875 -0.675781 Z M 4.027344 -0.675781 "/>
</g>
<g id="glyph-0-2">
<path d="M 2.585938 0 L 2.585938 -1.371094 L 0.101562 -1.371094 L 0.101562 -2.015625 L 2.714844 -5.726562 L 3.289062 -5.726562 L 3.289062 -2.015625 L 4.0625 -2.015625 L 4.0625 -1.371094 L 3.289062 -1.371094 L 3.289062 0 L 2.585938 0 M 2.585938 -2.015625 L 2.585938 -4.597656 L 0.792969 -2.015625 Z M 2.585938 -2.015625 "/>
</g>
<g id="glyph-0-3">
<path d="M 1.414062 -3.105469 C 1.121094 -3.210938 0.90625 -3.363281 0.765625 -3.5625 C 0.625 -3.761719 0.554688 -3.996094 0.554688 -4.273438 C 0.554688 -4.691406 0.703125 -5.039062 1.003906 -5.324219 C 1.304688 -5.609375 1.703125 -5.75 2.199219 -5.75 C 2.699219 -5.75 3.101562 -5.605469 3.40625 -5.3125 C 3.710938 -5.023438 3.863281 -4.671875 3.863281 -4.253906 C 3.863281 -3.988281 3.792969 -3.757812 3.65625 -3.5625 C 3.515625 -3.363281 3.304688 -3.210938 3.019531 -3.105469 C 3.371094 -2.992188 3.640625 -2.804688 3.820312 -2.550781 C 4.007812 -2.296875 4.097656 -1.992188 4.097656 -1.636719 C 4.097656 -1.148438 3.925781 -0.734375 3.578125 -0.402344 C 3.230469 -0.0703125 2.777344 0.0976562 2.210938 0.0976562 C 1.644531 0.0976562 1.191406 -0.0703125 0.84375 -0.40625 C 0.496094 -0.738281 0.324219 -1.15625 0.324219 -1.65625 C 0.324219 -2.027344 0.417969 -2.339844 0.609375 -2.59375 C 0.796875 -2.84375 1.066406 -3.015625 1.414062 -3.105469 M 1.273438 -4.296875 C 1.273438 -4.027344 1.359375 -3.804688 1.535156 -3.632812 C 1.710938 -3.460938 1.9375 -3.375 2.214844 -3.375 C 2.484375 -3.375 2.707031 -3.460938 2.882812 -3.632812 C 3.054688 -3.800781 3.140625 -4.011719 3.140625 -4.257812 C 3.140625 -4.515625 3.050781 -4.734375 2.875 -4.90625 C 2.695312 -5.085938 2.472656 -5.171875 2.207031 -5.171875 C 1.9375 -5.171875 1.714844 -5.085938 1.539062 -4.914062 C 1.363281 -4.742188 1.273438 -4.535156 1.273438 -4.296875 M 1.046875 -1.652344 C 1.046875 -1.453125 1.09375 -1.257812 1.1875 -1.070312 C 1.285156 -0.882812 1.425781 -0.738281 1.613281 -0.632812 C 1.800781 -0.53125 2.003906 -0.480469 2.21875 -0.480469 C 2.554688 -0.480469 2.832031 -0.589844 3.050781 -0.804688 C 3.269531 -1.019531 3.378906 -1.296875 3.378906 -1.628906 C 3.378906 -1.96875 3.265625 -2.246094 3.039062 -2.46875 C 2.816406 -2.691406 2.535156 -2.800781 2.195312 -2.800781 C 1.863281 -2.800781 1.589844 -2.691406 1.375 -2.472656 C 1.15625 -2.253906 1.046875 -1.980469 1.046875 -1.652344 Z M 1.046875 -1.652344 "/>
</g>
<g id="glyph-0-4">
<path d="M 2.980469 0 L 2.277344 0 L 2.277344 -4.480469 C 2.109375 -4.320312 1.886719 -4.15625 1.609375 -3.996094 C 1.335938 -3.835938 1.089844 -3.714844 0.871094 -3.632812 L 0.871094 -4.3125 C 1.265625 -4.496094 1.609375 -4.722656 1.902344 -4.984375 C 2.195312 -5.246094 2.40625 -5.503906 2.527344 -5.75 L 2.980469 -5.75 Z M 2.980469 0 "/>
</g>
<g id="glyph-0-5">
<path d="M 0.335938 -1.511719 L 1.039062 -1.605469 C 1.121094 -1.207031 1.257812 -0.917969 1.453125 -0.742188 C 1.644531 -0.570312 1.882812 -0.480469 2.160156 -0.480469 C 2.492188 -0.480469 2.769531 -0.59375 3 -0.824219 C 3.226562 -1.054688 3.339844 -1.335938 3.339844 -1.675781 C 3.339844 -2 3.234375 -2.265625 3.023438 -2.476562 C 2.8125 -2.683594 2.542969 -2.789062 2.21875 -2.789062 C 2.085938 -2.789062 1.921875 -2.761719 1.722656 -2.710938 L 1.800781 -3.328125 C 1.847656 -3.324219 1.886719 -3.320312 1.914062 -3.320312 C 2.214844 -3.320312 2.484375 -3.398438 2.722656 -3.554688 C 2.960938 -3.710938 3.082031 -3.953125 3.082031 -4.277344 C 3.082031 -4.535156 2.996094 -4.75 2.820312 -4.917969 C 2.644531 -5.085938 2.421875 -5.171875 2.144531 -5.171875 C 1.871094 -5.171875 1.644531 -5.085938 1.460938 -4.914062 C 1.277344 -4.742188 1.160156 -4.484375 1.109375 -4.140625 L 0.40625 -4.265625 C 0.492188 -4.738281 0.6875 -5.101562 0.992188 -5.359375 C 1.296875 -5.621094 1.675781 -5.75 2.128906 -5.75 C 2.441406 -5.75 2.730469 -5.683594 2.992188 -5.546875 C 3.253906 -5.414062 3.457031 -5.230469 3.59375 -5 C 3.734375 -4.769531 3.804688 -4.523438 3.804688 -4.261719 C 3.804688 -4.015625 3.738281 -3.789062 3.605469 -3.585938 C 3.472656 -3.382812 3.277344 -3.222656 3.015625 -3.101562 C 3.355469 -3.023438 3.617188 -2.859375 3.804688 -2.617188 C 3.992188 -2.367188 4.085938 -2.0625 4.085938 -1.691406 C 4.085938 -1.191406 3.902344 -0.765625 3.539062 -0.421875 C 3.175781 -0.0742188 2.714844 0.101562 2.15625 0.101562 C 1.652344 0.101562 1.234375 -0.046875 0.90625 -0.347656 C 0.570312 -0.648438 0.382812 -1.035156 0.335938 -1.511719 Z M 0.335938 -1.511719 "/>
</g>
<g id="glyph-0-6">
<path d="M 0.378906 -4.976562 L 0.378906 -5.652344 L 4.085938 -5.652344 L 4.085938 -5.105469 C 3.722656 -4.71875 3.359375 -4.203125 3 -3.558594 C 2.644531 -2.914062 2.367188 -2.253906 2.171875 -1.574219 C 2.03125 -1.09375 1.941406 -0.570312 1.902344 0 L 1.179688 0 C 1.1875 -0.449219 1.277344 -0.996094 1.445312 -1.632812 C 1.613281 -2.269531 1.855469 -2.886719 2.171875 -3.476562 C 2.492188 -4.070312 2.828125 -4.570312 3.183594 -4.976562 Z M 0.378906 -4.976562 "/>
</g>
<g id="glyph-0-7">
<path d="M 3.980469 -4.324219 L 3.28125 -4.269531 C 3.21875 -4.546875 3.128906 -4.746094 3.015625 -4.871094 C 2.824219 -5.070312 2.589844 -5.171875 2.3125 -5.171875 C 2.089844 -5.171875 1.890625 -5.109375 1.722656 -4.984375 C 1.5 -4.824219 1.328125 -4.585938 1.199219 -4.277344 C 1.070312 -3.96875 1.003906 -3.527344 1 -2.953125 C 1.167969 -3.210938 1.375 -3.402344 1.621094 -3.527344 C 1.867188 -3.652344 2.121094 -3.714844 2.390625 -3.714844 C 2.859375 -3.714844 3.257812 -3.542969 3.585938 -3.195312 C 3.917969 -2.851562 4.082031 -2.40625 4.082031 -1.859375 C 4.082031 -1.5 4.003906 -1.164062 3.851562 -0.859375 C 3.695312 -0.546875 3.480469 -0.3125 3.210938 -0.148438 C 2.941406 0.015625 2.632812 0.0976562 2.289062 0.0976562 C 1.703125 0.0976562 1.226562 -0.117188 0.855469 -0.546875 C 0.484375 -0.980469 0.300781 -1.691406 0.300781 -2.679688 C 0.300781 -3.785156 0.503906 -4.589844 0.914062 -5.09375 C 1.269531 -5.53125 1.75 -5.75 2.355469 -5.75 C 2.804688 -5.75 3.175781 -5.625 3.460938 -5.371094 C 3.75 -5.117188 3.921875 -4.769531 3.980469 -4.324219 M 1.109375 -1.855469 C 1.109375 -1.613281 1.160156 -1.382812 1.265625 -1.160156 C 1.367188 -0.9375 1.511719 -0.769531 1.695312 -0.65625 C 1.878906 -0.539062 2.074219 -0.480469 2.277344 -0.480469 C 2.574219 -0.480469 2.828125 -0.601562 3.042969 -0.839844 C 3.257812 -1.078125 3.363281 -1.40625 3.363281 -1.816406 C 3.363281 -2.210938 3.257812 -2.523438 3.046875 -2.75 C 2.835938 -2.980469 2.570312 -3.09375 2.25 -3.09375 C 1.933594 -3.09375 1.664062 -2.980469 1.441406 -2.75 C 1.21875 -2.523438 1.109375 -2.226562 1.109375 -1.855469 Z M 1.109375 -1.855469 "/>
</g>
<g id="glyph-0-8">
<path d="M 0.4375 -1.324219 L 1.113281 -1.386719 C 1.171875 -1.070312 1.28125 -0.839844 1.441406 -0.695312 C 1.601562 -0.550781 1.808594 -0.480469 2.0625 -0.480469 C 2.277344 -0.480469 2.46875 -0.53125 2.632812 -0.628906 C 2.792969 -0.726562 2.925781 -0.859375 3.03125 -1.023438 C 3.136719 -1.191406 3.222656 -1.414062 3.292969 -1.695312 C 3.363281 -1.976562 3.398438 -2.261719 3.398438 -2.554688 C 3.398438 -2.585938 3.398438 -2.632812 3.394531 -2.695312 C 3.253906 -2.472656 3.0625 -2.289062 2.820312 -2.148438 C 2.574219 -2.011719 2.3125 -1.941406 2.027344 -1.941406 C 1.554688 -1.941406 1.152344 -2.113281 0.824219 -2.457031 C 0.496094 -2.800781 0.332031 -3.253906 0.332031 -3.816406 C 0.332031 -4.398438 0.503906 -4.863281 0.84375 -5.21875 C 1.1875 -5.574219 1.617188 -5.75 2.132812 -5.75 C 2.503906 -5.75 2.84375 -5.648438 3.15625 -5.449219 C 3.460938 -5.25 3.695312 -4.960938 3.859375 -4.59375 C 4.015625 -4.21875 4.097656 -3.683594 4.097656 -2.980469 C 4.097656 -2.25 4.019531 -1.664062 3.859375 -1.234375 C 3.699219 -0.796875 3.464844 -0.46875 3.148438 -0.242188 C 2.835938 -0.015625 2.46875 0.0976562 2.046875 0.0976562 C 1.597656 0.0976562 1.234375 -0.0273438 0.949219 -0.273438 C 0.664062 -0.523438 0.496094 -0.875 0.4375 -1.324219 M 3.316406 -3.851562 C 3.316406 -4.253906 3.207031 -4.574219 2.992188 -4.8125 C 2.78125 -5.050781 2.519531 -5.167969 2.21875 -5.167969 C 1.90625 -5.167969 1.632812 -5.039062 1.402344 -4.785156 C 1.171875 -4.53125 1.054688 -4.199219 1.054688 -3.792969 C 1.054688 -3.429688 1.164062 -3.132812 1.382812 -2.90625 C 1.605469 -2.675781 1.875 -2.5625 2.199219 -2.5625 C 2.523438 -2.5625 2.792969 -2.675781 3 -2.90625 C 3.210938 -3.132812 3.316406 -3.449219 3.316406 -3.851562 Z M 3.316406 -3.851562 "/>
</g>
<g id="glyph-0-9">
<path d="M 0.332031 -1.5 L 1.070312 -1.5625 C 1.125 -1.203125 1.25 -0.933594 1.453125 -0.75 C 1.648438 -0.570312 1.890625 -0.480469 2.171875 -0.480469 C 2.511719 -0.480469 2.796875 -0.609375 3.03125 -0.863281 C 3.265625 -1.117188 3.382812 -1.457031 3.382812 -1.878906 C 3.382812 -2.28125 3.269531 -2.597656 3.046875 -2.828125 C 2.820312 -3.058594 2.523438 -3.175781 2.160156 -3.175781 C 1.933594 -3.175781 1.730469 -3.125 1.546875 -3.023438 C 1.363281 -2.917969 1.222656 -2.785156 1.117188 -2.621094 L 0.457031 -2.707031 L 1.011719 -5.648438 L 3.859375 -5.648438 L 3.859375 -4.976562 L 1.574219 -4.976562 L 1.265625 -3.4375 C 1.609375 -3.675781 1.96875 -3.796875 2.347656 -3.796875 C 2.847656 -3.796875 3.269531 -3.625 3.613281 -3.277344 C 3.957031 -2.929688 4.128906 -2.484375 4.128906 -1.941406 C 4.128906 -1.421875 3.976562 -0.976562 3.675781 -0.597656 C 3.308594 -0.132812 2.808594 0.0976562 2.171875 0.0976562 C 1.652344 0.0976562 1.226562 -0.046875 0.898438 -0.339844 C 0.566406 -0.632812 0.378906 -1.019531 0.332031 -1.5 Z M 0.332031 -1.5 "/>
</g>
<g id="glyph-1-0">
<path d="M 0.519531 -0.519531 L -4.542969 -5.578125 L -2.644531 -7.476562 C -2.257812 -7.863281 -1.898438 -8.125 -1.5625 -8.253906 C -1.222656 -8.386719 -0.882812 -8.410156 -0.539062 -8.332031 C -0.191406 -8.25 0.09375 -8.09375 0.328125 -7.863281 C 0.542969 -7.644531 0.6875 -7.382812 0.761719 -7.074219 C 0.835938 -6.765625 0.8125 -6.433594 0.695312 -6.082031 C 1.089844 -6.296875 1.476562 -6.378906 1.859375 -6.328125 C 2.238281 -6.273438 2.578125 -6.101562 2.871094 -5.808594 C 3.109375 -5.570312 3.28125 -5.300781 3.382812 -4.996094 C 3.488281 -4.691406 3.519531 -4.410156 3.484375 -4.152344 C 3.445312 -3.894531 3.34375 -3.628906 3.179688 -3.347656 C 3.015625 -3.070312 2.769531 -2.769531 2.449219 -2.449219 L 0.519531 -0.519531 M -1.746094 -4.121094 L -0.652344 -5.21875 C -0.355469 -5.515625 -0.164062 -5.746094 -0.0742188 -5.914062 C 0.046875 -6.136719 0.0898438 -6.347656 0.0585938 -6.550781 C 0.03125 -6.753906 -0.0742188 -6.945312 -0.253906 -7.121094 C -0.421875 -7.289062 -0.609375 -7.398438 -0.816406 -7.445312 C -1.023438 -7.492188 -1.226562 -7.464844 -1.425781 -7.363281 C -1.621094 -7.261719 -1.902344 -7.027344 -2.265625 -6.664062 L -3.277344 -5.652344 L -1.746094 -4.121094 M 0.589844 -1.785156 L 1.851562 -3.046875 C 2.066406 -3.261719 2.210938 -3.421875 2.28125 -3.523438 C 2.410156 -3.707031 2.492188 -3.882812 2.53125 -4.050781 C 2.570312 -4.21875 2.5625 -4.398438 2.503906 -4.585938 C 2.449219 -4.777344 2.339844 -4.953125 2.179688 -5.113281 C 1.988281 -5.300781 1.777344 -5.417969 1.542969 -5.460938 C 1.304688 -5.503906 1.074219 -5.464844 0.847656 -5.351562 C 0.617188 -5.238281 0.34375 -5.019531 0.0195312 -4.695312 L -1.148438 -3.523438 Z M 0.589844 -1.785156 "/>
</g>
<g id="glyph-1-1">
<path d="M 0.660156 -0.660156 L -4.402344 -5.722656 L -3.730469 -6.390625 L 1.328125 -1.328125 Z M 0.660156 -0.660156 "/>
</g>
<g id="glyph-1-2">
<path d="M -2.125 -2.808594 C -2.964844 -3.648438 -3.394531 -4.53125 -3.417969 -5.457031 C -3.445312 -6.382812 -3.097656 -7.203125 -2.386719 -7.917969 C -1.917969 -8.382812 -1.386719 -8.695312 -0.789062 -8.847656 C -0.1875 -8.996094 0.410156 -8.972656 1.003906 -8.769531 C 1.601562 -8.566406 2.152344 -8.210938 2.660156 -7.707031 C 3.171875 -7.191406 3.527344 -6.628906 3.726562 -6.019531 C 3.921875 -5.40625 3.9375 -4.804688 3.765625 -4.21875 C 3.59375 -3.628906 3.289062 -3.117188 2.847656 -2.675781 C 2.371094 -2.199219 1.832031 -1.886719 1.226562 -1.742188 C 0.621094 -1.597656 0.0234375 -1.628906 -0.570312 -1.832031 C -1.160156 -2.039062 -1.679688 -2.363281 -2.125 -2.808594 M -1.421875 -3.488281 C -0.8125 -2.878906 -0.167969 -2.5625 0.511719 -2.539062 C 1.191406 -2.515625 1.777344 -2.75 2.273438 -3.246094 C 2.777344 -3.75 3.011719 -4.339844 2.984375 -5.023438 C 2.957031 -5.703125 2.617188 -6.367188 1.964844 -7.019531 C 1.550781 -7.429688 1.125 -7.722656 0.675781 -7.890625 C 0.230469 -8.058594 -0.210938 -8.09375 -0.648438 -7.992188 C -1.085938 -7.894531 -1.472656 -7.675781 -1.804688 -7.34375 C -2.28125 -6.871094 -2.523438 -6.296875 -2.542969 -5.632812 C -2.558594 -4.964844 -2.183594 -4.25 -1.421875 -3.488281 Z M -1.421875 -3.488281 "/>
</g>
<g id="glyph-1-3">
<path d="M 0.554688 -0.554688 L -4.503906 -5.617188 L -2.261719 -7.863281 C -1.808594 -8.3125 -1.421875 -8.609375 -1.097656 -8.753906 C -0.769531 -8.898438 -0.421875 -8.925781 -0.0507812 -8.835938 C 0.320312 -8.746094 0.644531 -8.5625 0.921875 -8.28125 C 1.28125 -7.925781 1.46875 -7.503906 1.480469 -7.027344 C 1.496094 -6.546875 1.292969 -6.03125 0.875 -5.480469 C 1.136719 -5.570312 1.355469 -5.621094 1.53125 -5.632812 C 1.90625 -5.648438 2.3125 -5.609375 2.757812 -5.515625 L 5.015625 -5.015625 L 4.175781 -4.175781 L 2.453125 -4.558594 C 1.953125 -4.664062 1.558594 -4.738281 1.269531 -4.773438 C 0.984375 -4.804688 0.757812 -4.804688 0.59375 -4.769531 C 0.425781 -4.734375 0.28125 -4.675781 0.152344 -4.597656 C 0.0585938 -4.539062 -0.0742188 -4.421875 -0.246094 -4.25 L -1.023438 -3.472656 L 1.226562 -1.226562 L 0.554688 -0.554688 M -1.601562 -4.054688 L -0.164062 -5.492188 C 0.144531 -5.800781 0.351562 -6.070312 0.460938 -6.304688 C 0.570312 -6.542969 0.601562 -6.773438 0.550781 -7.003906 C 0.5 -7.234375 0.394531 -7.429688 0.230469 -7.59375 C -0.0078125 -7.832031 -0.292969 -7.941406 -0.621094 -7.921875 C -0.949219 -7.902344 -1.300781 -7.707031 -1.675781 -7.328125 L -3.277344 -5.726562 Z M -1.601562 -4.054688 "/>
</g>
<g id="glyph-1-4">
<path d="M 0.558594 -0.558594 L -4.503906 -5.621094 L -0.84375 -9.28125 L -0.246094 -8.683594 L -3.234375 -5.695312 L -1.683594 -4.144531 L 1.113281 -6.941406 L 1.710938 -6.347656 L -1.089844 -3.550781 L 0.632812 -1.828125 L 3.738281 -4.933594 L 4.335938 -4.335938 Z M 0.558594 -0.558594 "/>
</g>
<g id="glyph-1-5">
<path d="M 0.546875 -0.546875 L -4.515625 -5.605469 L -2.773438 -7.351562 C -2.378906 -7.746094 -2.054688 -8.019531 -1.800781 -8.179688 C -1.441406 -8.402344 -1.074219 -8.527344 -0.695312 -8.558594 C -0.203125 -8.601562 0.285156 -8.511719 0.769531 -8.292969 C 1.253906 -8.074219 1.71875 -7.738281 2.171875 -7.289062 C 2.554688 -6.902344 2.851562 -6.519531 3.058594 -6.132812 C 3.265625 -5.746094 3.398438 -5.382812 3.449219 -5.050781 C 3.503906 -4.714844 3.503906 -4.40625 3.449219 -4.128906 C 3.394531 -3.851562 3.277344 -3.566406 3.097656 -3.269531 C 2.921875 -2.976562 2.679688 -2.679688 2.371094 -2.371094 L 0.546875 -0.546875 M 0.617188 -1.8125 L 1.699219 -2.894531 C 2.03125 -3.226562 2.261719 -3.519531 2.390625 -3.773438 C 2.519531 -4.023438 2.582031 -4.261719 2.582031 -4.488281 C 2.582031 -4.804688 2.492188 -5.144531 2.3125 -5.5 C 2.132812 -5.855469 1.851562 -6.226562 1.472656 -6.609375 C 0.941406 -7.136719 0.449219 -7.457031 -0.0117188 -7.566406 C -0.46875 -7.679688 -0.871094 -7.65625 -1.214844 -7.507812 C -1.464844 -7.394531 -1.789062 -7.140625 -2.183594 -6.742188 L -3.25 -5.679688 Z M 0.617188 -1.8125 "/>
</g>
<g id="glyph-1-6">
<path d="M -1.308594 -1.945312 L -0.730469 -2.632812 C -0.449219 -2.40625 -0.171875 -2.269531 0.101562 -2.214844 C 0.371094 -2.164062 0.671875 -2.203125 1.003906 -2.332031 C 1.332031 -2.460938 1.640625 -2.671875 1.929688 -2.957031 C 2.183594 -3.214844 2.375 -3.476562 2.492188 -3.75 C 2.613281 -4.019531 2.652344 -4.269531 2.617188 -4.5 C 2.582031 -4.726562 2.484375 -4.917969 2.328125 -5.074219 C 2.167969 -5.234375 1.984375 -5.328125 1.773438 -5.351562 C 1.5625 -5.378906 1.3125 -5.328125 1.019531 -5.195312 C 0.828125 -5.113281 0.445312 -4.894531 -0.128906 -4.542969 C -0.707031 -4.1875 -1.136719 -3.96875 -1.421875 -3.878906 C -1.789062 -3.765625 -2.128906 -3.742188 -2.433594 -3.8125 C -2.742188 -3.878906 -3.007812 -4.03125 -3.242188 -4.265625 C -3.496094 -4.519531 -3.664062 -4.832031 -3.742188 -5.199219 C -3.816406 -5.566406 -3.773438 -5.945312 -3.613281 -6.339844 C -3.449219 -6.734375 -3.195312 -7.101562 -2.855469 -7.441406 C -2.480469 -7.816406 -2.089844 -8.085938 -1.679688 -8.25 C -1.273438 -8.417969 -0.875 -8.460938 -0.488281 -8.378906 C -0.0976562 -8.300781 0.25 -8.117188 0.558594 -7.832031 L -0.0351562 -7.140625 C -0.390625 -7.425781 -0.746094 -7.550781 -1.109375 -7.515625 C -1.472656 -7.480469 -1.847656 -7.265625 -2.238281 -6.878906 C -2.640625 -6.472656 -2.863281 -6.101562 -2.898438 -5.769531 C -2.9375 -5.4375 -2.851562 -5.164062 -2.640625 -4.953125 C -2.460938 -4.773438 -2.246094 -4.6875 -1.996094 -4.703125 C -1.75 -4.714844 -1.292969 -4.929688 -0.625 -5.351562 C 0.0429688 -5.773438 0.523438 -6.039062 0.816406 -6.148438 C 1.25 -6.308594 1.636719 -6.351562 1.988281 -6.285156 C 2.335938 -6.21875 2.644531 -6.046875 2.917969 -5.777344 C 3.1875 -5.507812 3.363281 -5.175781 3.449219 -4.785156 C 3.53125 -4.390625 3.496094 -3.984375 3.339844 -3.5625 C 3.183594 -3.140625 2.921875 -2.75 2.5625 -2.390625 C 2.105469 -1.929688 1.652344 -1.613281 1.210938 -1.4375 C 0.765625 -1.261719 0.324219 -1.21875 -0.121094 -1.3125 C -0.566406 -1.402344 -0.960938 -1.613281 -1.308594 -1.945312 Z M -1.308594 -1.945312 "/>
</g>
<g id="glyph-1-7">
<path d="M -1.292969 -1.742188 L -1.917969 -2.367188 L -0.0117188 -4.277344 L 0.613281 -3.652344 Z M -1.292969 -1.742188 "/>
</g>
<g id="glyph-1-8">
<path d="M 1.796875 -4.15625 L 2.515625 -4.71875 C 2.789062 -4.242188 2.894531 -3.765625 2.828125 -3.285156 C 2.761719 -2.800781 2.515625 -2.347656 2.089844 -1.921875 C 1.550781 -1.386719 0.960938 -1.125 0.316406 -1.144531 C -0.328125 -1.160156 -0.945312 -1.464844 -1.542969 -2.0625 C -2.160156 -2.679688 -2.480469 -3.316406 -2.503906 -3.972656 C -2.527344 -4.632812 -2.285156 -5.214844 -1.777344 -5.722656 C -1.289062 -6.210938 -0.71875 -6.445312 -0.0742188 -6.421875 C 0.570312 -6.398438 1.195312 -6.085938 1.800781 -5.480469 C 1.835938 -5.441406 1.890625 -5.386719 1.960938 -5.308594 L -0.773438 -2.574219 C -0.347656 -2.195312 0.0742188 -2 0.492188 -1.992188 C 0.914062 -1.984375 1.273438 -2.132812 1.582031 -2.4375 C 1.808594 -2.664062 1.945312 -2.917969 1.984375 -3.199219 C 2.027344 -3.480469 1.964844 -3.800781 1.796875 -4.15625 M -1.25 -3.121094 L 0.796875 -5.167969 C 0.460938 -5.449219 0.152344 -5.601562 -0.132812 -5.628906 C -0.570312 -5.667969 -0.945312 -5.53125 -1.261719 -5.21875 C -1.546875 -4.929688 -1.691406 -4.597656 -1.695312 -4.210938 C -1.695312 -3.824219 -1.550781 -3.460938 -1.25 -3.121094 Z M -1.25 -3.121094 "/>
</g>
<g id="glyph-1-9">
<path d="M 0.464844 -0.464844 L -3.199219 -4.132812 L -2.640625 -4.691406 L -2.121094 -4.171875 C -2.253906 -4.84375 -2.066406 -5.433594 -1.558594 -5.941406 C -1.335938 -6.164062 -1.09375 -6.328125 -0.828125 -6.433594 C -0.5625 -6.539062 -0.320312 -6.574219 -0.101562 -6.535156 C 0.121094 -6.5 0.339844 -6.410156 0.550781 -6.269531 C 0.691406 -6.179688 0.902344 -5.988281 1.191406 -5.699219 L 3.445312 -3.445312 L 2.824219 -2.824219 L 0.59375 -5.054688 C 0.339844 -5.308594 0.128906 -5.472656 -0.046875 -5.550781 C -0.21875 -5.628906 -0.40625 -5.640625 -0.605469 -5.59375 C -0.800781 -5.546875 -0.984375 -5.4375 -1.148438 -5.273438 C -1.414062 -5.007812 -1.558594 -4.695312 -1.582031 -4.335938 C -1.605469 -3.972656 -1.382812 -3.558594 -0.914062 -3.089844 L 1.085938 -1.085938 Z M 0.464844 -0.464844 "/>
</g>
<g id="glyph-1-10">
<path d="M 0.65625 -0.046875 L 1.351562 -0.5625 C 1.5625 -0.402344 1.769531 -0.335938 1.96875 -0.367188 C 2.238281 -0.40625 2.503906 -0.558594 2.773438 -0.824219 C 3.058594 -1.113281 3.226562 -1.390625 3.265625 -1.664062 C 3.308594 -1.9375 3.253906 -2.203125 3.101562 -2.464844 C 3.007812 -2.625 2.753906 -2.90625 2.347656 -3.308594 C 2.394531 -2.714844 2.21875 -2.21875 1.8125 -1.8125 C 1.308594 -1.308594 0.738281 -1.101562 0.0976562 -1.1875 C -0.542969 -1.273438 -1.117188 -1.574219 -1.625 -2.082031 C -1.976562 -2.433594 -2.234375 -2.816406 -2.40625 -3.242188 C -2.574219 -3.664062 -2.617188 -4.074219 -2.539062 -4.476562 C -2.460938 -4.878906 -2.257812 -5.242188 -1.933594 -5.566406 C -1.5 -6 -0.96875 -6.179688 -0.339844 -6.109375 L -0.78125 -6.554688 L -0.207031 -7.125 L 2.960938 -3.957031 C 3.535156 -3.386719 3.878906 -2.921875 4 -2.570312 C 4.125 -2.214844 4.128906 -1.84375 4.015625 -1.453125 C 3.898438 -1.0625 3.660156 -0.683594 3.289062 -0.3125 C 2.851562 0.125 2.402344 0.378906 1.933594 0.449219 C 1.46875 0.523438 1.042969 0.355469 0.65625 -0.046875 M -1.03125 -2.765625 C -0.550781 -2.285156 -0.105469 -2.027344 0.308594 -2 C 0.71875 -1.96875 1.070312 -2.097656 1.355469 -2.386719 C 1.640625 -2.671875 1.773438 -3.019531 1.746094 -3.433594 C 1.71875 -3.847656 1.472656 -4.289062 1 -4.757812 C 0.550781 -5.207031 0.113281 -5.445312 -0.3125 -5.472656 C -0.738281 -5.503906 -1.09375 -5.378906 -1.375 -5.097656 C -1.648438 -4.820312 -1.773438 -4.472656 -1.742188 -4.054688 C -1.710938 -3.636719 -1.472656 -3.207031 -1.03125 -2.765625 Z M -1.03125 -2.765625 "/>
</g>
<g id="glyph-1-11">
<path d="M -3.878906 -4.816406 L -4.59375 -5.53125 L -3.96875 -6.152344 L -3.257812 -5.4375 L -3.878906 -4.816406 M 0.46875 -0.46875 L -3.195312 -4.136719 L -2.574219 -4.757812 L 1.089844 -1.089844 Z M 0.46875 -0.46875 "/>
</g>
<g id="glyph-1-12">
<path d="M 2.382812 -5.933594 L 3.222656 -6.433594 C 3.632812 -5.742188 3.796875 -5.070312 3.722656 -4.414062 C 3.644531 -3.761719 3.34375 -3.171875 2.816406 -2.644531 C 2.273438 -2.097656 1.71875 -1.765625 1.152344 -1.648438 C 0.589844 -1.527344 0.0078125 -1.589844 -0.59375 -1.832031 C -1.191406 -2.074219 -1.734375 -2.4375 -2.214844 -2.921875 C -2.742188 -3.449219 -3.101562 -4.007812 -3.292969 -4.601562 C -3.484375 -5.195312 -3.496094 -5.78125 -3.328125 -6.355469 C -3.160156 -6.933594 -2.851562 -7.441406 -2.40625 -7.890625 C -1.898438 -8.394531 -1.34375 -8.691406 -0.742188 -8.78125 C -0.140625 -8.867188 0.464844 -8.746094 1.066406 -8.414062 L 0.5625 -7.597656 C 0.078125 -7.851562 -0.363281 -7.949219 -0.753906 -7.894531 C -1.144531 -7.835938 -1.507812 -7.640625 -1.847656 -7.300781 C -2.234375 -6.914062 -2.46875 -6.496094 -2.542969 -6.046875 C -2.617188 -5.601562 -2.550781 -5.164062 -2.34375 -4.746094 C -2.132812 -4.324219 -1.863281 -3.949219 -1.53125 -3.613281 C -1.097656 -3.183594 -0.660156 -2.871094 -0.214844 -2.675781 C 0.234375 -2.480469 0.667969 -2.433594 1.089844 -2.542969 C 1.515625 -2.648438 1.878906 -2.855469 2.1875 -3.164062 C 2.5625 -3.539062 2.773438 -3.964844 2.816406 -4.441406 C 2.859375 -4.917969 2.714844 -5.414062 2.382812 -5.933594 Z M 2.382812 -5.933594 "/>
</g>
<g id="glyph-1-13">
<path d="M -1.597656 -2.066406 C -2.277344 -2.746094 -2.59375 -3.4375 -2.542969 -4.144531 C -2.496094 -4.730469 -2.25 -5.25 -1.796875 -5.703125 C -1.292969 -6.207031 -0.714844 -6.453125 -0.0625 -6.445312 C 0.585938 -6.433594 1.203125 -6.136719 1.785156 -5.554688 C 2.257812 -5.082031 2.558594 -4.640625 2.6875 -4.230469 C 2.816406 -3.816406 2.820312 -3.402344 2.699219 -2.980469 C 2.578125 -2.5625 2.355469 -2.191406 2.035156 -1.871094 C 1.523438 -1.359375 0.945312 -1.109375 0.296875 -1.121094 C -0.347656 -1.132812 -0.980469 -1.449219 -1.597656 -2.066406 M -0.960938 -2.707031 C -0.492188 -2.238281 -0.0351562 -1.988281 0.402344 -1.960938 C 0.839844 -1.929688 1.214844 -2.070312 1.527344 -2.382812 C 1.835938 -2.691406 1.972656 -3.066406 1.945312 -3.503906 C 1.914062 -3.945312 1.660156 -4.40625 1.175781 -4.886719 C 0.722656 -5.339844 0.277344 -5.578125 -0.164062 -5.605469 C -0.601562 -5.632812 -0.976562 -5.496094 -1.28125 -5.1875 C -1.589844 -4.878906 -1.734375 -4.503906 -1.707031 -4.066406 C -1.679688 -3.628906 -1.429688 -3.175781 -0.960938 -2.707031 Z M -0.960938 -2.707031 "/>
</g>
<g id="glyph-1-14">
<path d="M 2.84375 -2.84375 L 2.382812 -3.308594 C 2.511719 -2.710938 2.355469 -2.1875 1.902344 -1.738281 C 1.609375 -1.445312 1.261719 -1.257812 0.855469 -1.171875 C 0.449219 -1.089844 0.0351562 -1.125 -0.390625 -1.277344 C -0.8125 -1.433594 -1.214844 -1.695312 -1.589844 -2.070312 C -1.953125 -2.4375 -2.226562 -2.832031 -2.402344 -3.25 C -2.578125 -3.671875 -2.621094 -4.082031 -2.539062 -4.484375 C -2.453125 -4.886719 -2.257812 -5.238281 -1.957031 -5.542969 C -1.738281 -5.761719 -1.492188 -5.914062 -1.226562 -5.992188 C -0.960938 -6.070312 -0.699219 -6.089844 -0.441406 -6.050781 L -2.257812 -7.863281 L -1.640625 -8.484375 L 3.421875 -3.421875 L 2.84375 -2.84375 M -0.949219 -2.710938 C -0.480469 -2.242188 -0.03125 -1.988281 0.402344 -1.953125 C 0.832031 -1.917969 1.179688 -2.035156 1.449219 -2.304688 C 1.722656 -2.578125 1.839844 -2.917969 1.808594 -3.332031 C 1.777344 -3.742188 1.53125 -4.175781 1.078125 -4.632812 C 0.574219 -5.136719 0.109375 -5.40625 -0.316406 -5.449219 C -0.746094 -5.488281 -1.101562 -5.367188 -1.382812 -5.085938 C -1.660156 -4.808594 -1.777344 -4.464844 -1.738281 -4.054688 C -1.699219 -3.644531 -1.433594 -3.195312 -0.949219 -2.710938 Z M -0.949219 -2.710938 "/>
</g>
<g id="glyph-1-15">
<path d="M 1.832031 -1.832031 L -2.632812 -6.296875 L -4.296875 -4.628906 L -4.894531 -5.226562 L -0.882812 -9.238281 L -0.285156 -8.640625 L -1.960938 -6.96875 L 2.503906 -2.503906 Z M 1.832031 -1.832031 "/>
</g>
<g id="glyph-1-16">
<path d="M 0.460938 -0.460938 L -3.207031 -4.125 L -2.648438 -4.683594 L -2.09375 -4.128906 C -2.210938 -4.53125 -2.25 -4.835938 -2.210938 -5.039062 C -2.171875 -5.242188 -2.082031 -5.417969 -1.9375 -5.5625 C -1.726562 -5.773438 -1.449219 -5.917969 -1.097656 -6 L -0.734375 -5.210938 C -0.976562 -5.148438 -1.175781 -5.039062 -1.324219 -4.890625 C -1.460938 -4.753906 -1.542969 -4.589844 -1.570312 -4.402344 C -1.597656 -4.210938 -1.558594 -4.019531 -1.460938 -3.828125 C -1.308594 -3.539062 -1.101562 -3.261719 -0.839844 -3 L 1.082031 -1.082031 Z M 0.460938 -0.460938 "/>
</g>
<g id="glyph-1-17">
<path d="M 2.40625 -3.3125 C 2.371094 -2.886719 2.289062 -2.527344 2.15625 -2.230469 C 2.023438 -1.9375 1.835938 -1.671875 1.589844 -1.425781 C 1.1875 -1.023438 0.78125 -0.8125 0.367188 -0.792969 C -0.046875 -0.773438 -0.40625 -0.917969 -0.710938 -1.222656 C -0.890625 -1.402344 -1.015625 -1.605469 -1.082031 -1.835938 C -1.148438 -2.066406 -1.160156 -2.292969 -1.117188 -2.515625 C -1.074219 -2.738281 -0.992188 -2.953125 -0.875 -3.167969 C -0.785156 -3.320312 -0.628906 -3.535156 -0.414062 -3.8125 C 0.0273438 -4.375 0.324219 -4.8125 0.480469 -5.132812 C 0.398438 -5.222656 0.34375 -5.277344 0.320312 -5.300781 C 0.0664062 -5.554688 -0.167969 -5.671875 -0.390625 -5.660156 C -0.6875 -5.640625 -0.996094 -5.476562 -1.308594 -5.160156 C -1.601562 -4.871094 -1.765625 -4.601562 -1.800781 -4.359375 C -1.839844 -4.117188 -1.761719 -3.835938 -1.566406 -3.507812 L -2.257812 -2.984375 C -2.464844 -3.296875 -2.582031 -3.597656 -2.617188 -3.886719 C -2.648438 -4.171875 -2.589844 -4.480469 -2.4375 -4.804688 C -2.28125 -5.128906 -2.046875 -5.449219 -1.734375 -5.765625 C -1.421875 -6.078125 -1.128906 -6.296875 -0.859375 -6.417969 C -0.589844 -6.539062 -0.355469 -6.589844 -0.148438 -6.570312 C 0.0546875 -6.550781 0.257812 -6.476562 0.464844 -6.34375 C 0.59375 -6.257812 0.792969 -6.078125 1.070312 -5.800781 L 1.898438 -4.972656 C 2.476562 -4.394531 2.855469 -4.042969 3.035156 -3.914062 C 3.214844 -3.789062 3.414062 -3.695312 3.632812 -3.632812 L 2.984375 -2.984375 C 2.789062 -3.046875 2.597656 -3.15625 2.40625 -3.3125 M 0.964844 -4.648438 C 0.832031 -4.328125 0.574219 -3.914062 0.1875 -3.398438 C -0.03125 -3.105469 -0.171875 -2.882812 -0.230469 -2.730469 C -0.292969 -2.578125 -0.304688 -2.429688 -0.273438 -2.285156 C -0.242188 -2.136719 -0.171875 -2.011719 -0.0664062 -1.902344 C 0.101562 -1.738281 0.300781 -1.660156 0.535156 -1.675781 C 0.773438 -1.691406 1.011719 -1.820312 1.253906 -2.0625 C 1.492188 -2.300781 1.652344 -2.566406 1.734375 -2.855469 C 1.816406 -3.148438 1.808594 -3.429688 1.714844 -3.699219 C 1.640625 -3.90625 1.46875 -4.144531 1.195312 -4.417969 Z M 0.964844 -4.648438 "/>
</g>
<g id="glyph-1-18">
<path d="M -0.878906 -1.3125 L -0.359375 -2.023438 C -0.078125 -1.8125 0.207031 -1.71875 0.496094 -1.746094 C 0.785156 -1.773438 1.070312 -1.925781 1.351562 -2.210938 C 1.640625 -2.496094 1.792969 -2.765625 1.8125 -3.019531 C 1.835938 -3.273438 1.769531 -3.480469 1.613281 -3.636719 C 1.472656 -3.777344 1.300781 -3.824219 1.097656 -3.785156 C 0.957031 -3.753906 0.675781 -3.613281 0.253906 -3.359375 C -0.320312 -3.019531 -0.734375 -2.800781 -0.996094 -2.710938 C -1.253906 -2.617188 -1.503906 -2.601562 -1.742188 -2.660156 C -1.984375 -2.714844 -2.191406 -2.835938 -2.371094 -3.015625 C -2.535156 -3.175781 -2.648438 -3.367188 -2.714844 -3.582031 C -2.777344 -3.792969 -2.792969 -4.011719 -2.753906 -4.234375 C -2.730469 -4.402344 -2.660156 -4.59375 -2.542969 -4.808594 C -2.421875 -5.027344 -2.269531 -5.230469 -2.078125 -5.421875 C -1.789062 -5.707031 -1.496094 -5.917969 -1.195312 -6.054688 C -0.894531 -6.1875 -0.625 -6.238281 -0.378906 -6.199219 C -0.132812 -6.160156 0.128906 -6.042969 0.402344 -5.84375 L -0.121094 -5.15625 C -0.335938 -5.316406 -0.566406 -5.382812 -0.804688 -5.355469 C -1.039062 -5.332031 -1.28125 -5.195312 -1.523438 -4.953125 C -1.808594 -4.667969 -1.964844 -4.417969 -1.992188 -4.203125 C -2.019531 -3.984375 -1.96875 -3.8125 -1.84375 -3.6875 C -1.761719 -3.605469 -1.664062 -3.558594 -1.550781 -3.546875 C -1.433594 -3.53125 -1.296875 -3.554688 -1.144531 -3.617188 C -1.0625 -3.65625 -0.824219 -3.789062 -0.4375 -4.007812 C 0.117188 -4.332031 0.519531 -4.542969 0.769531 -4.640625 C 1.019531 -4.738281 1.265625 -4.765625 1.503906 -4.722656 C 1.746094 -4.679688 1.972656 -4.550781 2.183594 -4.339844 C 2.394531 -4.132812 2.527344 -3.878906 2.589844 -3.574219 C 2.652344 -3.269531 2.617188 -2.953125 2.492188 -2.625 C 2.363281 -2.296875 2.15625 -1.988281 1.867188 -1.703125 C 1.390625 -1.226562 0.929688 -0.960938 0.480469 -0.910156 C 0.0351562 -0.859375 -0.417969 -0.992188 -0.878906 -1.3125 Z M -0.878906 -1.3125 "/>
</g>
<g id="glyph-1-19">
<path d="M 0.613281 -0.613281 L -2.570312 -3.796875 L -3.117188 -3.25 L -3.601562 -3.730469 L -3.050781 -4.28125 L -3.441406 -4.671875 C -3.6875 -4.917969 -3.851562 -5.121094 -3.925781 -5.285156 C -4.027344 -5.507812 -4.050781 -5.742188 -4 -5.992188 C -3.949219 -6.246094 -3.789062 -6.507812 -3.519531 -6.777344 C -3.34375 -6.953125 -3.128906 -7.125 -2.875 -7.296875 L -2.425781 -6.660156 C -2.578125 -6.554688 -2.710938 -6.445312 -2.828125 -6.328125 C -3.015625 -6.140625 -3.109375 -5.964844 -3.105469 -5.808594 C -3.105469 -5.648438 -2.992188 -5.457031 -2.773438 -5.238281 L -2.433594 -4.898438 L -1.71875 -5.613281 L -1.234375 -5.128906 L -1.949219 -4.414062 L 1.234375 -1.234375 Z M 0.613281 -0.613281 "/>
</g>
<g id="glyph-1-20">
<path d="M 0.464844 -0.464844 L -3.199219 -4.132812 L -2.644531 -4.6875 L -2.128906 -4.175781 C -2.195312 -4.46875 -2.1875 -4.765625 -2.105469 -5.066406 C -2.023438 -5.367188 -1.859375 -5.640625 -1.617188 -5.882812 C -1.34375 -6.15625 -1.066406 -6.320312 -0.777344 -6.382812 C -0.492188 -6.441406 -0.210938 -6.40625 0.0625 -6.277344 C -0.0742188 -6.996094 0.0859375 -7.585938 0.550781 -8.050781 C 0.917969 -8.414062 1.296875 -8.59375 1.695312 -8.589844 C 2.089844 -8.582031 2.5 -8.371094 2.917969 -7.953125 L 5.433594 -5.433594 L 4.816406 -4.816406 L 2.507812 -7.125 C 2.257812 -7.375 2.058594 -7.535156 1.910156 -7.601562 C 1.757812 -7.671875 1.597656 -7.6875 1.425781 -7.648438 C 1.253906 -7.609375 1.09375 -7.519531 0.953125 -7.375 C 0.695312 -7.117188 0.566406 -6.816406 0.566406 -6.476562 C 0.570312 -6.132812 0.757812 -5.773438 1.136719 -5.398438 L 3.265625 -3.265625 L 2.644531 -2.644531 L 0.261719 -5.027344 C -0.015625 -5.304688 -0.273438 -5.460938 -0.511719 -5.496094 C -0.75 -5.535156 -0.984375 -5.4375 -1.214844 -5.207031 C -1.390625 -5.03125 -1.507812 -4.824219 -1.5625 -4.582031 C -1.617188 -4.34375 -1.589844 -4.101562 -1.480469 -3.855469 C -1.371094 -3.613281 -1.148438 -3.324219 -0.816406 -2.988281 L 1.085938 -1.085938 Z M 0.464844 -0.464844 "/>
</g>
<g id="glyph-1-21">
<path d="M 0.539062 -0.539062 L -4.523438 -5.601562 L -3.835938 -6.289062 L 2.796875 -4.972656 L -1.175781 -8.945312 L -0.535156 -9.589844 L 4.527344 -4.527344 L 3.839844 -3.839844 L -2.796875 -5.160156 L 1.179688 -1.179688 Z M 0.539062 -0.539062 "/>
</g>
<g id="glyph-1-22">
<path d="M 1.265625 -2.378906 L 1.90625 -1.917969 C 1.769531 -1.707031 1.628906 -1.53125 1.492188 -1.394531 C 1.265625 -1.167969 1.054688 -1.03125 0.859375 -0.976562 C 0.664062 -0.925781 0.484375 -0.929688 0.316406 -0.996094 C 0.148438 -1.0625 -0.121094 -1.28125 -0.492188 -1.652344 L -2.601562 -3.761719 L -3.058594 -3.308594 L -3.542969 -3.792969 L -3.085938 -4.246094 L -3.996094 -5.15625 L -3.75 -6.144531 L -2.46875 -4.863281 L -1.84375 -5.488281 L -1.359375 -5.007812 L -1.984375 -4.382812 L 0.160156 -2.238281 C 0.335938 -2.058594 0.460938 -1.957031 0.535156 -1.929688 C 0.605469 -1.898438 0.683594 -1.894531 0.761719 -1.914062 C 0.839844 -1.933594 0.925781 -1.988281 1.019531 -2.082031 C 1.085938 -2.152344 1.171875 -2.25 1.265625 -2.378906 Z M 1.265625 -2.378906 "/>
</g>
<g id="glyph-1-23">
<path d="M 1.484375 -1.484375 L -3.578125 -3.757812 L -2.921875 -4.414062 L 0.0625 -3.003906 C 0.382812 -2.851562 0.707031 -2.683594 1.035156 -2.5 C 0.898438 -2.75 0.742188 -3.058594 0.570312 -3.429688 L -0.851562 -6.480469 L -0.214844 -7.121094 L 2.066406 -2.066406 Z M 1.484375 -1.484375 "/>
</g>
<g id="glyph-1-24">
<path d="M 1.992188 -1.992188 L -5.03125 -5.09375 L -4.304688 -5.816406 L 0.6875 -3.457031 C 1.085938 -3.265625 1.453125 -3.078125 1.78125 -2.894531 C 1.582031 -3.246094 1.398438 -3.613281 1.226562 -3.996094 L -1.085938 -9.039062 L -0.402344 -9.722656 L 2.679688 -2.679688 Z M 1.992188 -1.992188 "/>
</g>
<g id="glyph-1-25">
<path d="M 1.515625 -4.203125 L 2.207031 -4.734375 C 2.5625 -4.246094 2.71875 -3.746094 2.683594 -3.230469 C 2.644531 -2.71875 2.425781 -2.261719 2.027344 -1.859375 C 1.523438 -1.359375 0.957031 -1.121094 0.324219 -1.144531 C -0.308594 -1.164062 -0.929688 -1.484375 -1.542969 -2.097656 C -1.9375 -2.492188 -2.21875 -2.902344 -2.386719 -3.332031 C -2.550781 -3.761719 -2.574219 -4.183594 -2.453125 -4.597656 C -2.335938 -5.015625 -2.117188 -5.382812 -1.800781 -5.695312 C -1.402344 -6.09375 -0.976562 -6.320312 -0.523438 -6.371094 C -0.0703125 -6.421875 0.378906 -6.300781 0.820312 -6 L 0.3125 -5.304688 C 0.0078125 -5.492188 -0.28125 -5.574219 -0.550781 -5.554688 C -0.820312 -5.53125 -1.058594 -5.417969 -1.265625 -5.210938 C -1.582031 -4.898438 -1.722656 -4.53125 -1.695312 -4.109375 C -1.664062 -3.691406 -1.40625 -3.238281 -0.921875 -2.75 C -0.429688 -2.257812 0.0234375 -1.996094 0.433594 -1.960938 C 0.847656 -1.925781 1.203125 -2.0625 1.507812 -2.363281 C 1.753906 -2.609375 1.882812 -2.886719 1.894531 -3.199219 C 1.910156 -3.511719 1.78125 -3.847656 1.515625 -4.203125 Z M 1.515625 -4.203125 "/>
</g>
<g id="glyph-1-26">
<path d="M 2.871094 -2.871094 L 2.332031 -3.40625 C 2.460938 -2.707031 2.277344 -2.113281 1.789062 -1.621094 C 1.570312 -1.40625 1.328125 -1.246094 1.058594 -1.140625 C 0.789062 -1.035156 0.542969 -1 0.328125 -1.035156 C 0.113281 -1.070312 -0.105469 -1.160156 -0.324219 -1.304688 C -0.472656 -1.402344 -0.679688 -1.582031 -0.941406 -1.847656 L -3.214844 -4.117188 L -2.59375 -4.742188 L -0.558594 -2.707031 C -0.234375 -2.382812 -0.00390625 -2.175781 0.132812 -2.089844 C 0.335938 -1.964844 0.546875 -1.917969 0.769531 -1.953125 C 0.988281 -1.984375 1.191406 -2.097656 1.378906 -2.28125 C 1.5625 -2.46875 1.691406 -2.691406 1.757812 -2.949219 C 1.828125 -3.210938 1.8125 -3.453125 1.714844 -3.6875 C 1.621094 -3.921875 1.414062 -4.191406 1.101562 -4.503906 L -0.863281 -6.46875 L -0.242188 -7.089844 L 3.425781 -3.425781 Z M 2.871094 -2.871094 "/>
</g>
<g id="glyph-1-27">
<path d="M 0.453125 -0.453125 L -4.609375 -5.515625 L -3.988281 -6.136719 L 1.074219 -1.074219 Z M 0.453125 -0.453125 "/>
</g>
<g id="glyph-1-28">
<path d="M 0.929688 -4.898438 L 0.335938 -5.492188 L 2.476562 -7.640625 L 4.355469 -5.761719 C 4.285156 -5.171875 4.144531 -4.632812 3.925781 -4.152344 C 3.710938 -3.667969 3.417969 -3.246094 3.046875 -2.875 C 2.550781 -2.378906 1.992188 -2.035156 1.375 -1.839844 C 0.753906 -1.648438 0.140625 -1.648438 -0.46875 -1.84375 C -1.078125 -2.039062 -1.632812 -2.386719 -2.128906 -2.882812 C -2.621094 -3.375 -2.980469 -3.9375 -3.199219 -4.570312 C -3.421875 -5.203125 -3.441406 -5.816406 -3.261719 -6.410156 C -3.082031 -7.003906 -2.742188 -7.554688 -2.238281 -8.058594 C -1.871094 -8.425781 -1.480469 -8.695312 -1.066406 -8.875 C -0.652344 -9.050781 -0.253906 -9.117188 0.125 -9.074219 C 0.503906 -9.03125 0.90625 -8.882812 1.335938 -8.628906 L 0.898438 -7.859375 C 0.5625 -8.039062 0.265625 -8.148438 0.0078125 -8.183594 C -0.253906 -8.21875 -0.53125 -8.175781 -0.832031 -8.054688 C -1.128906 -7.933594 -1.40625 -7.746094 -1.660156 -7.488281 C -1.96875 -7.183594 -2.183594 -6.871094 -2.316406 -6.554688 C -2.445312 -6.238281 -2.503906 -5.9375 -2.488281 -5.648438 C -2.472656 -5.359375 -2.414062 -5.085938 -2.304688 -4.828125 C -2.121094 -4.386719 -1.847656 -3.980469 -1.480469 -3.613281 C -1.03125 -3.164062 -0.574219 -2.863281 -0.117188 -2.714844 C 0.34375 -2.566406 0.796875 -2.566406 1.238281 -2.71875 C 1.683594 -2.867188 2.074219 -3.109375 2.40625 -3.441406 C 2.695312 -3.730469 2.925781 -4.070312 3.089844 -4.460938 C 3.253906 -4.847656 3.34375 -5.175781 3.359375 -5.445312 L 2.417969 -6.386719 Z M 0.929688 -4.898438 "/>
</g>
<g id="glyph-1-29">
<path d="M 1.871094 0.9375 L -3.199219 -4.132812 L -2.632812 -4.699219 L -2.15625 -4.222656 C -2.210938 -4.542969 -2.199219 -4.832031 -2.125 -5.09375 C -2.050781 -5.355469 -1.894531 -5.605469 -1.652344 -5.84375 C -1.339844 -6.160156 -0.984375 -6.355469 -0.582031 -6.433594 C -0.183594 -6.511719 0.226562 -6.464844 0.640625 -6.292969 C 1.054688 -6.121094 1.4375 -5.859375 1.789062 -5.511719 C 2.164062 -5.136719 2.433594 -4.730469 2.601562 -4.296875 C 2.765625 -3.859375 2.800781 -3.433594 2.703125 -3.019531 C 2.605469 -2.601562 2.417969 -2.25 2.132812 -1.96875 C 1.925781 -1.761719 1.695312 -1.617188 1.445312 -1.542969 C 1.191406 -1.464844 0.945312 -1.441406 0.707031 -1.46875 L 2.492188 0.316406 L 1.871094 0.9375 M -0.785156 -2.839844 C -0.3125 -2.371094 0.132812 -2.117188 0.550781 -2.082031 C 0.964844 -2.046875 1.308594 -2.164062 1.582031 -2.4375 C 1.859375 -2.714844 1.976562 -3.066406 1.941406 -3.496094 C 1.902344 -3.929688 1.640625 -4.386719 1.148438 -4.878906 C 0.683594 -5.347656 0.238281 -5.601562 -0.1875 -5.640625 C -0.613281 -5.679688 -0.957031 -5.566406 -1.226562 -5.300781 C -1.492188 -5.035156 -1.601562 -4.675781 -1.558594 -4.226562 C -1.511719 -3.773438 -1.253906 -3.3125 -0.785156 -2.839844 Z M -0.785156 -2.839844 "/>
</g>
<g id="glyph-2-0">
<path d="M 0.773438 0 L 0.773438 -7.15625 L 3.472656 -7.15625 C 3.945312 -7.15625 4.308594 -7.136719 4.5625 -7.089844 C 4.914062 -7.03125 5.207031 -6.917969 5.445312 -6.753906 C 5.683594 -6.589844 5.875 -6.359375 6.019531 -6.0625 C 6.164062 -5.769531 6.234375 -5.441406 6.234375 -5.085938 C 6.234375 -4.480469 6.042969 -3.964844 5.65625 -3.542969 C 5.265625 -3.121094 4.566406 -2.910156 3.554688 -2.910156 L 1.71875 -2.910156 L 1.71875 0 L 0.773438 0 M 1.71875 -3.753906 L 3.570312 -3.753906 C 4.179688 -3.753906 4.617188 -3.867188 4.875 -4.097656 C 5.128906 -4.324219 5.257812 -4.644531 5.257812 -5.058594 C 5.257812 -5.359375 5.183594 -5.613281 5.03125 -5.828125 C 4.878906 -6.039062 4.679688 -6.179688 4.433594 -6.25 C 4.273438 -6.292969 3.980469 -6.3125 3.550781 -6.3125 L 1.71875 -6.3125 Z M 1.71875 -3.753906 "/>
</g>
<g id="glyph-2-1">
<path d="M 0.648438 0 L 0.648438 -5.1875 L 1.441406 -5.1875 L 1.441406 -4.398438 C 1.640625 -4.765625 1.828125 -5.007812 2 -5.125 C 2.171875 -5.242188 2.359375 -5.304688 2.5625 -5.304688 C 2.859375 -5.304688 3.160156 -5.207031 3.46875 -5.019531 L 3.164062 -4.203125 C 2.949219 -4.332031 2.734375 -4.394531 2.519531 -4.394531 C 2.328125 -4.394531 2.15625 -4.335938 2 -4.222656 C 1.847656 -4.105469 1.738281 -3.945312 1.675781 -3.742188 C 1.578125 -3.429688 1.527344 -3.085938 1.527344 -2.714844 L 1.527344 0 Z M 0.648438 0 "/>
</g>
<g id="glyph-2-2">
<path d="M 0.332031 -2.59375 C 0.332031 -3.554688 0.597656 -4.265625 1.132812 -4.726562 C 1.578125 -5.109375 2.121094 -5.304688 2.765625 -5.304688 C 3.476562 -5.304688 4.058594 -5.070312 4.511719 -4.601562 C 4.964844 -4.136719 5.191406 -3.488281 5.191406 -2.664062 C 5.191406 -2 5.089844 -1.472656 4.890625 -1.089844 C 4.691406 -0.707031 4.398438 -0.410156 4.015625 -0.199219 C 3.632812 0.0117188 3.214844 0.117188 2.765625 0.117188 C 2.039062 0.117188 1.449219 -0.117188 1.003906 -0.582031 C 0.554688 -1.046875 0.332031 -1.71875 0.332031 -2.59375 M 1.234375 -2.59375 C 1.234375 -1.929688 1.378906 -1.429688 1.671875 -1.101562 C 1.960938 -0.769531 2.324219 -0.605469 2.765625 -0.605469 C 3.199219 -0.605469 3.5625 -0.773438 3.851562 -1.101562 C 4.140625 -1.4375 4.289062 -1.941406 4.289062 -2.621094 C 4.289062 -3.261719 4.140625 -3.75 3.851562 -4.078125 C 3.558594 -4.410156 3.195312 -4.574219 2.765625 -4.574219 C 2.324219 -4.574219 1.960938 -4.410156 1.671875 -4.082031 C 1.378906 -3.753906 1.234375 -3.257812 1.234375 -2.59375 Z M 1.234375 -2.59375 "/>
</g>
<g id="glyph-2-3">
<path d="M 0.664062 0 L 0.664062 -7.15625 L 1.542969 -7.15625 L 1.542969 -3.078125 L 3.625 -5.1875 L 4.761719 -5.1875 L 2.777344 -3.261719 L 4.960938 0 L 3.875 0 L 2.164062 -2.652344 L 1.542969 -2.054688 L 1.542969 0 Z M 0.664062 0 "/>
</g>
<g id="glyph-2-4">
<path d="M 4.042969 -0.640625 C 3.71875 -0.363281 3.402344 -0.167969 3.101562 -0.0546875 C 2.800781 0.0585938 2.480469 0.117188 2.132812 0.117188 C 1.5625 0.117188 1.125 -0.0234375 0.820312 -0.300781 C 0.515625 -0.578125 0.359375 -0.933594 0.359375 -1.367188 C 0.359375 -1.621094 0.417969 -1.851562 0.535156 -2.0625 C 0.648438 -2.273438 0.800781 -2.441406 0.988281 -2.570312 C 1.175781 -2.695312 1.386719 -2.792969 1.621094 -2.855469 C 1.792969 -2.902344 2.054688 -2.945312 2.402344 -2.988281 C 3.113281 -3.074219 3.632812 -3.171875 3.96875 -3.289062 C 3.972656 -3.410156 3.976562 -3.488281 3.976562 -3.519531 C 3.976562 -3.878906 3.890625 -4.128906 3.726562 -4.277344 C 3.5 -4.476562 3.167969 -4.574219 2.726562 -4.574219 C 2.3125 -4.574219 2.007812 -4.503906 1.808594 -4.359375 C 1.613281 -4.214844 1.464844 -3.957031 1.371094 -3.589844 L 0.511719 -3.707031 C 0.589844 -4.074219 0.71875 -4.371094 0.898438 -4.597656 C 1.078125 -4.824219 1.335938 -4.996094 1.675781 -5.121094 C 2.011719 -5.242188 2.40625 -5.304688 2.851562 -5.304688 C 3.292969 -5.304688 3.652344 -5.25 3.929688 -5.148438 C 4.207031 -5.042969 4.410156 -4.910156 4.539062 -4.753906 C 4.671875 -4.59375 4.761719 -4.394531 4.8125 -4.15625 C 4.84375 -4.003906 4.859375 -3.734375 4.859375 -3.34375 L 4.859375 -2.171875 C 4.859375 -1.355469 4.878906 -0.839844 4.914062 -0.621094 C 4.953125 -0.40625 5.027344 -0.199219 5.136719 0 L 4.21875 0 C 4.128906 -0.183594 4.070312 -0.394531 4.042969 -0.640625 M 3.96875 -2.601562 C 3.652344 -2.472656 3.171875 -2.363281 2.535156 -2.269531 C 2.171875 -2.21875 1.917969 -2.160156 1.765625 -2.09375 C 1.617188 -2.03125 1.503906 -1.933594 1.421875 -1.808594 C 1.339844 -1.683594 1.296875 -1.542969 1.296875 -1.390625 C 1.296875 -1.15625 1.386719 -0.960938 1.566406 -0.804688 C 1.742188 -0.648438 2 -0.570312 2.34375 -0.570312 C 2.683594 -0.570312 2.984375 -0.644531 3.246094 -0.792969 C 3.511719 -0.941406 3.703125 -1.144531 3.828125 -1.402344 C 3.921875 -1.601562 3.96875 -1.894531 3.96875 -2.28125 Z M 3.96875 -2.601562 "/>
</g>
<g id="glyph-2-5">
<path d="M 0.621094 1.996094 L 0.523438 1.171875 C 0.714844 1.222656 0.882812 1.25 1.023438 1.25 C 1.21875 1.25 1.375 1.21875 1.492188 1.152344 C 1.609375 1.085938 1.707031 0.996094 1.78125 0.878906 C 1.835938 0.789062 1.925781 0.574219 2.050781 0.226562 C 2.066406 0.175781 2.09375 0.105469 2.128906 0.0078125 L 0.160156 -5.1875 L 1.109375 -5.1875 L 2.1875 -2.183594 C 2.328125 -1.800781 2.453125 -1.402344 2.5625 -0.980469 C 2.664062 -1.386719 2.785156 -1.777344 2.925781 -2.164062 L 4.03125 -5.1875 L 4.914062 -5.1875 L 2.9375 0.0859375 C 2.726562 0.65625 2.5625 1.050781 2.445312 1.265625 C 2.289062 1.554688 2.109375 1.765625 1.910156 1.902344 C 1.707031 2.035156 1.464844 2.105469 1.1875 2.105469 C 1.015625 2.105469 0.828125 2.070312 0.621094 1.996094 Z M 0.621094 1.996094 "/>
</g>
<g id="glyph-2-6">
<path d="M 2.578125 -0.785156 L 2.703125 -0.0078125 C 2.457031 0.0429688 2.234375 0.0703125 2.039062 0.0703125 C 1.722656 0.0703125 1.476562 0.0195312 1.296875 -0.0820312 C 1.125 -0.183594 1 -0.316406 0.929688 -0.480469 C 0.855469 -0.644531 0.820312 -0.992188 0.820312 -1.519531 L 0.820312 -4.5 L 0.175781 -4.5 L 0.175781 -5.1875 L 0.820312 -5.1875 L 0.820312 -6.46875 L 1.695312 -6.996094 L 1.695312 -5.1875 L 2.578125 -5.1875 L 2.578125 -4.5 L 1.695312 -4.5 L 1.695312 -1.46875 C 1.695312 -1.21875 1.710938 -1.058594 1.742188 -0.984375 C 1.773438 -0.914062 1.820312 -0.859375 1.890625 -0.816406 C 1.960938 -0.773438 2.0625 -0.75 2.191406 -0.75 C 2.289062 -0.75 2.417969 -0.761719 2.578125 -0.785156 Z M 2.578125 -0.785156 "/>
</g>
<g id="glyph-2-7">
<path d="M 0.664062 -6.148438 L 0.664062 -7.15625 L 1.542969 -7.15625 L 1.542969 -6.148438 L 0.664062 -6.148438 M 0.664062 0 L 0.664062 -5.1875 L 1.542969 -5.1875 L 1.542969 0 Z M 0.664062 0 "/>
</g>
<g id="glyph-2-8">
<path d="M 4.042969 -1.898438 L 4.90625 -1.789062 C 4.8125 -1.191406 4.570312 -0.726562 4.183594 -0.386719 C 3.792969 -0.0507812 3.316406 0.117188 2.75 0.117188 C 2.039062 0.117188 1.46875 -0.113281 1.039062 -0.578125 C 0.605469 -1.042969 0.390625 -1.707031 0.390625 -2.574219 C 0.390625 -3.132812 0.484375 -3.625 0.667969 -4.042969 C 0.855469 -4.460938 1.136719 -4.777344 1.515625 -4.988281 C 1.894531 -5.199219 2.308594 -5.304688 2.753906 -5.304688 C 3.316406 -5.304688 3.777344 -5.160156 4.136719 -4.875 C 4.492188 -4.589844 4.722656 -4.1875 4.824219 -3.664062 L 3.96875 -3.53125 C 3.886719 -3.878906 3.746094 -4.140625 3.539062 -4.316406 C 3.332031 -4.492188 3.082031 -4.578125 2.789062 -4.578125 C 2.34375 -4.578125 1.984375 -4.421875 1.710938 -4.105469 C 1.433594 -3.785156 1.292969 -3.285156 1.292969 -2.597656 C 1.292969 -1.902344 1.425781 -1.394531 1.695312 -1.078125 C 1.960938 -0.761719 2.308594 -0.605469 2.738281 -0.605469 C 3.085938 -0.605469 3.371094 -0.710938 3.601562 -0.921875 C 3.835938 -1.132812 3.980469 -1.460938 4.042969 -1.898438 Z M 4.042969 -1.898438 "/>
</g>
<g id="glyph-2-9">
</g>
<g id="glyph-2-10">
<path d="M 0.789062 0 L 0.789062 -7.15625 L 5.96875 -7.15625 L 5.96875 -6.3125 L 1.738281 -6.3125 L 1.738281 -4.121094 L 5.699219 -4.121094 L 5.699219 -3.28125 L 1.738281 -3.28125 L 1.738281 -0.84375 L 6.132812 -0.84375 L 6.132812 0 Z M 0.789062 0 "/>
</g>
<g id="glyph-2-11">
<path d="M 0.640625 0 L 0.640625 -7.15625 L 1.519531 -7.15625 L 1.519531 0 Z M 0.640625 0 "/>
</g>
<g id="glyph-2-12">
<path d="M 4.210938 -1.671875 L 5.117188 -1.558594 C 4.972656 -1.027344 4.707031 -0.613281 4.320312 -0.320312 C 3.933594 -0.03125 3.4375 0.117188 2.835938 0.117188 C 2.078125 0.117188 1.476562 -0.117188 1.03125 -0.582031 C 0.589844 -1.050781 0.367188 -1.707031 0.367188 -2.546875 C 0.367188 -3.421875 0.589844 -4.097656 1.039062 -4.578125 C 1.488281 -5.0625 2.070312 -5.304688 2.789062 -5.304688 C 3.480469 -5.304688 4.046875 -5.066406 4.488281 -4.59375 C 4.925781 -4.121094 5.148438 -3.457031 5.148438 -2.601562 C 5.148438 -2.550781 5.144531 -2.472656 5.140625 -2.367188 L 1.273438 -2.367188 C 1.308594 -1.796875 1.46875 -1.363281 1.757812 -1.058594 C 2.046875 -0.757812 2.410156 -0.605469 2.84375 -0.605469 C 3.164062 -0.605469 3.4375 -0.691406 3.667969 -0.859375 C 3.894531 -1.027344 4.074219 -1.296875 4.210938 -1.671875 M 1.324219 -3.089844 L 4.21875 -3.089844 C 4.179688 -3.527344 4.070312 -3.855469 3.886719 -4.070312 C 3.605469 -4.410156 3.242188 -4.578125 2.796875 -4.578125 C 2.394531 -4.578125 2.054688 -4.445312 1.78125 -4.175781 C 1.503906 -3.90625 1.351562 -3.542969 1.324219 -3.089844 Z M 1.324219 -3.089844 "/>
</g>
<g id="glyph-2-13">
<path d="M 0.660156 0 L 0.660156 -5.1875 L 1.445312 -5.1875 L 1.445312 -4.457031 C 1.609375 -4.710938 1.824219 -4.917969 2.09375 -5.070312 C 2.363281 -5.226562 2.671875 -5.304688 3.015625 -5.304688 C 3.402344 -5.304688 3.714844 -5.222656 3.960938 -5.0625 C 4.207031 -4.902344 4.382812 -4.679688 4.484375 -4.394531 C 4.890625 -5 5.425781 -5.304688 6.085938 -5.304688 C 6.597656 -5.304688 6.992188 -5.160156 7.269531 -4.875 C 7.546875 -4.589844 7.6875 -4.152344 7.6875 -3.558594 L 7.6875 0 L 6.8125 0 L 6.8125 -3.265625 C 6.8125 -3.617188 6.78125 -3.871094 6.726562 -4.027344 C 6.667969 -4.179688 6.566406 -4.304688 6.414062 -4.398438 C 6.265625 -4.492188 6.089844 -4.539062 5.890625 -4.539062 C 5.523438 -4.539062 5.222656 -4.417969 4.980469 -4.175781 C 4.738281 -3.933594 4.617188 -3.546875 4.617188 -3.011719 L 4.617188 0 L 3.742188 0 L 3.742188 -3.367188 C 3.742188 -3.757812 3.667969 -4.050781 3.523438 -4.25 C 3.382812 -4.441406 3.148438 -4.539062 2.820312 -4.539062 C 2.574219 -4.539062 2.347656 -4.476562 2.136719 -4.34375 C 1.925781 -4.214844 1.773438 -4.023438 1.679688 -3.773438 C 1.585938 -3.523438 1.539062 -3.164062 1.539062 -2.691406 L 1.539062 0 Z M 0.660156 0 "/>
</g>
<g id="glyph-2-14">
<path d="M 0.660156 0 L 0.660156 -5.1875 L 1.449219 -5.1875 L 1.449219 -4.449219 C 1.832031 -5.019531 2.382812 -5.304688 3.101562 -5.304688 C 3.414062 -5.304688 3.699219 -5.246094 3.960938 -5.132812 C 4.222656 -5.023438 4.421875 -4.875 4.550781 -4.691406 C 4.679688 -4.511719 4.773438 -4.292969 4.824219 -4.042969 C 4.855469 -3.878906 4.875 -3.59375 4.875 -3.1875 L 4.875 0 L 3.992188 0 L 3.992188 -3.15625 C 3.992188 -3.511719 3.960938 -3.78125 3.890625 -3.957031 C 3.824219 -4.136719 3.703125 -4.277344 3.527344 -4.382812 C 3.355469 -4.488281 3.148438 -4.539062 2.914062 -4.539062 C 2.539062 -4.539062 2.21875 -4.421875 1.945312 -4.183594 C 1.675781 -3.945312 1.539062 -3.496094 1.539062 -2.832031 L 1.539062 0 Z M 0.660156 0 "/>
</g>
<g id="glyph-2-15">
<path d="M 0.308594 -1.546875 L 1.175781 -1.683594 C 1.226562 -1.335938 1.363281 -1.070312 1.585938 -0.882812 C 1.808594 -0.699219 2.117188 -0.605469 2.519531 -0.605469 C 2.921875 -0.605469 3.222656 -0.6875 3.417969 -0.851562 C 3.613281 -1.015625 3.710938 -1.210938 3.710938 -1.429688 C 3.710938 -1.628906 3.625 -1.785156 3.453125 -1.898438 C 3.332031 -1.976562 3.03125 -2.078125 2.554688 -2.195312 C 1.910156 -2.359375 1.460938 -2.5 1.214844 -2.621094 C 0.964844 -2.738281 0.777344 -2.902344 0.648438 -3.113281 C 0.519531 -3.324219 0.453125 -3.554688 0.453125 -3.808594 C 0.453125 -4.039062 0.507812 -4.253906 0.613281 -4.449219 C 0.71875 -4.648438 0.863281 -4.8125 1.046875 -4.941406 C 1.179688 -5.042969 1.367188 -5.128906 1.605469 -5.199219 C 1.839844 -5.269531 2.09375 -5.304688 2.363281 -5.304688 C 2.769531 -5.304688 3.128906 -5.242188 3.433594 -5.125 C 3.742188 -5.007812 3.96875 -4.851562 4.117188 -4.652344 C 4.261719 -4.449219 4.363281 -4.183594 4.417969 -3.847656 L 3.558594 -3.730469 C 3.519531 -3.996094 3.40625 -4.207031 3.21875 -4.355469 C 3.03125 -4.503906 2.769531 -4.578125 2.425781 -4.578125 C 2.023438 -4.578125 1.734375 -4.511719 1.5625 -4.378906 C 1.390625 -4.246094 1.304688 -4.089844 1.304688 -3.910156 C 1.304688 -3.796875 1.339844 -3.695312 1.410156 -3.601562 C 1.484375 -3.507812 1.59375 -3.429688 1.75 -3.367188 C 1.835938 -3.335938 2.09375 -3.261719 2.523438 -3.144531 C 3.144531 -2.976562 3.578125 -2.84375 3.824219 -2.738281 C 4.070312 -2.632812 4.265625 -2.476562 4.40625 -2.273438 C 4.542969 -2.074219 4.613281 -1.824219 4.613281 -1.523438 C 4.613281 -1.230469 4.527344 -0.953125 4.359375 -0.695312 C 4.1875 -0.4375 3.941406 -0.238281 3.617188 -0.09375 C 3.296875 0.046875 2.929688 0.117188 2.523438 0.117188 C 1.851562 0.117188 1.335938 -0.0234375 0.984375 -0.304688 C 0.628906 -0.582031 0.40625 -0.996094 0.308594 -1.546875 Z M 0.308594 -1.546875 "/>
</g>
<g id="glyph-2-16">
<path d="M 4.023438 0 L 4.023438 -0.65625 C 3.695312 -0.140625 3.210938 0.117188 2.574219 0.117188 C 2.160156 0.117188 1.78125 0.00390625 1.433594 -0.226562 C 1.085938 -0.453125 0.816406 -0.769531 0.628906 -1.179688 C 0.4375 -1.585938 0.34375 -2.058594 0.34375 -2.585938 C 0.34375 -3.105469 0.429688 -3.574219 0.601562 -3.996094 C 0.773438 -4.417969 1.03125 -4.742188 1.375 -4.964844 C 1.722656 -5.191406 2.109375 -5.304688 2.535156 -5.304688 C 2.847656 -5.304688 3.125 -5.238281 3.367188 -5.105469 C 3.613281 -4.972656 3.8125 -4.800781 3.964844 -4.589844 L 3.964844 -7.15625 L 4.839844 -7.15625 L 4.839844 0 L 4.023438 0 M 1.246094 -2.585938 C 1.246094 -1.921875 1.386719 -1.425781 1.664062 -1.097656 C 1.945312 -0.769531 2.273438 -0.605469 2.65625 -0.605469 C 3.039062 -0.605469 3.367188 -0.761719 3.636719 -1.078125 C 3.902344 -1.390625 4.039062 -1.871094 4.039062 -2.515625 C 4.039062 -3.222656 3.902344 -3.746094 3.628906 -4.078125 C 3.355469 -4.410156 3.015625 -4.574219 2.617188 -4.574219 C 2.226562 -4.574219 1.898438 -4.414062 1.636719 -4.097656 C 1.375 -3.777344 1.246094 -3.273438 1.246094 -2.585938 Z M 1.246094 -2.585938 "/>
</g>
<g id="glyph-2-17">
<path d="M 0.449219 -2.300781 L 1.34375 -2.378906 C 1.386719 -2.019531 1.484375 -1.726562 1.636719 -1.496094 C 1.792969 -1.265625 2.03125 -1.082031 2.359375 -0.941406 C 2.683594 -0.796875 3.050781 -0.726562 3.457031 -0.726562 C 3.816406 -0.726562 4.136719 -0.78125 4.414062 -0.890625 C 4.691406 -0.996094 4.898438 -1.144531 5.03125 -1.332031 C 5.167969 -1.519531 5.234375 -1.722656 5.234375 -1.945312 C 5.234375 -2.167969 5.167969 -2.363281 5.039062 -2.53125 C 4.910156 -2.699219 4.695312 -2.839844 4.394531 -2.953125 C 4.203125 -3.027344 3.777344 -3.144531 3.121094 -3.304688 C 2.460938 -3.460938 2 -3.609375 1.738281 -3.75 C 1.398438 -3.929688 1.140625 -4.152344 0.972656 -4.417969 C 0.804688 -4.683594 0.722656 -4.980469 0.722656 -5.308594 C 0.722656 -5.667969 0.824219 -6.007812 1.03125 -6.320312 C 1.234375 -6.636719 1.535156 -6.875 1.929688 -7.035156 C 2.324219 -7.199219 2.761719 -7.28125 3.242188 -7.28125 C 3.773438 -7.28125 4.242188 -7.195312 4.644531 -7.023438 C 5.050781 -6.851562 5.363281 -6.601562 5.582031 -6.269531 C 5.800781 -5.9375 5.917969 -5.5625 5.933594 -5.140625 L 5.023438 -5.074219 C 4.976562 -5.527344 4.808594 -5.867188 4.527344 -6.097656 C 4.246094 -6.328125 3.832031 -6.445312 3.28125 -6.445312 C 2.707031 -6.445312 2.289062 -6.339844 2.027344 -6.128906 C 1.765625 -5.921875 1.636719 -5.667969 1.636719 -5.371094 C 1.636719 -5.113281 1.726562 -4.902344 1.914062 -4.734375 C 2.097656 -4.570312 2.574219 -4.398438 3.34375 -4.226562 C 4.113281 -4.050781 4.640625 -3.898438 4.925781 -3.769531 C 5.34375 -3.578125 5.652344 -3.335938 5.851562 -3.039062 C 6.046875 -2.746094 6.148438 -2.40625 6.148438 -2.023438 C 6.148438 -1.640625 6.039062 -1.28125 5.820312 -0.945312 C 5.601562 -0.609375 5.289062 -0.347656 4.878906 -0.160156 C 4.472656 0.0273438 4.011719 0.121094 3.5 0.121094 C 2.851562 0.121094 2.308594 0.0273438 1.871094 -0.160156 C 1.433594 -0.351562 1.089844 -0.632812 0.84375 -1.011719 C 0.59375 -1.390625 0.460938 -1.820312 0.449219 -2.300781 Z M 0.449219 -2.300781 "/>
</g>
<g id="glyph-2-18">
<path d="M 0.5 0.429688 L 1.351562 0.554688 C 1.386719 0.820312 1.488281 1.011719 1.648438 1.132812 C 1.867188 1.296875 2.167969 1.375 2.542969 1.375 C 2.949219 1.375 3.265625 1.296875 3.484375 1.132812 C 3.707031 0.96875 3.859375 0.742188 3.9375 0.449219 C 3.980469 0.269531 4.003906 -0.105469 4 -0.679688 C 3.613281 -0.226562 3.136719 0 2.5625 0 C 1.851562 0 1.296875 -0.257812 0.90625 -0.773438 C 0.515625 -1.285156 0.320312 -1.902344 0.320312 -2.621094 C 0.320312 -3.117188 0.410156 -3.574219 0.589844 -3.992188 C 0.769531 -4.410156 1.03125 -4.734375 1.371094 -4.960938 C 1.710938 -5.1875 2.109375 -5.304688 2.570312 -5.304688 C 3.179688 -5.304688 3.683594 -5.054688 4.082031 -4.5625 L 4.082031 -5.1875 L 4.890625 -5.1875 L 4.890625 -0.703125 C 4.890625 0.105469 4.808594 0.675781 4.644531 1.011719 C 4.480469 1.351562 4.222656 1.617188 3.863281 1.8125 C 3.507812 2.007812 3.070312 2.105469 2.546875 2.105469 C 1.929688 2.105469 1.429688 1.964844 1.050781 1.6875 C 0.667969 1.410156 0.484375 0.988281 0.5 0.429688 M 1.226562 -2.6875 C 1.226562 -2.003906 1.359375 -1.507812 1.632812 -1.195312 C 1.902344 -0.882812 2.238281 -0.726562 2.648438 -0.726562 C 3.050781 -0.726562 3.390625 -0.882812 3.664062 -1.195312 C 3.933594 -1.503906 4.070312 -1.992188 4.070312 -2.65625 C 4.070312 -3.289062 3.929688 -3.769531 3.648438 -4.09375 C 3.367188 -4.414062 3.027344 -4.574219 2.632812 -4.574219 C 2.242188 -4.574219 1.910156 -4.417969 1.636719 -4.097656 C 1.363281 -3.78125 1.226562 -3.3125 1.226562 -2.6875 Z M 1.226562 -2.6875 "/>
</g>
<g id="glyph-2-19">
<path d="M 0.660156 1.988281 L 0.660156 -5.1875 L 1.460938 -5.1875 L 1.460938 -4.511719 C 1.648438 -4.773438 1.863281 -4.972656 2.101562 -5.105469 C 2.335938 -5.238281 2.625 -5.304688 2.964844 -5.304688 C 3.40625 -5.304688 3.796875 -5.1875 4.136719 -4.960938 C 4.472656 -4.734375 4.730469 -4.410156 4.902344 -3.996094 C 5.074219 -3.582031 5.160156 -3.125 5.160156 -2.632812 C 5.160156 -2.101562 5.066406 -1.625 4.875 -1.199219 C 4.683594 -0.773438 4.410156 -0.449219 4.046875 -0.222656 C 3.683594 0.00390625 3.300781 0.117188 2.898438 0.117188 C 2.609375 0.117188 2.34375 0.0546875 2.113281 -0.0703125 C 1.878906 -0.191406 1.6875 -0.347656 1.539062 -0.539062 L 1.539062 1.988281 L 0.660156 1.988281 M 1.453125 -2.5625 C 1.453125 -1.894531 1.589844 -1.402344 1.859375 -1.085938 C 2.128906 -0.765625 2.457031 -0.605469 2.84375 -0.605469 C 3.234375 -0.605469 3.566406 -0.769531 3.84375 -1.101562 C 4.125 -1.429688 4.261719 -1.945312 4.261719 -2.636719 C 4.261719 -3.296875 4.125 -3.792969 3.855469 -4.121094 C 3.582031 -4.449219 3.257812 -4.613281 2.882812 -4.613281 C 2.507812 -4.613281 2.175781 -4.4375 1.886719 -4.089844 C 1.597656 -3.738281 1.453125 -3.230469 1.453125 -2.5625 Z M 1.453125 -2.5625 "/>
</g>
<g id="glyph-2-20">
<path d="M 0.785156 0 L 0.785156 -7.15625 L 3.960938 -7.15625 C 4.597656 -7.15625 5.082031 -7.09375 5.414062 -6.964844 C 5.746094 -6.835938 6.011719 -6.609375 6.210938 -6.285156 C 6.410156 -5.957031 6.507812 -5.597656 6.507812 -5.203125 C 6.507812 -4.695312 6.34375 -4.269531 6.015625 -3.921875 C 5.6875 -3.574219 5.179688 -3.351562 4.492188 -3.257812 C 4.742188 -3.136719 4.933594 -3.015625 5.0625 -2.898438 C 5.339844 -2.648438 5.601562 -2.328125 5.851562 -1.949219 L 7.09375 0 L 5.902344 0 L 4.957031 -1.488281 C 4.679688 -1.917969 4.453125 -2.246094 4.273438 -2.476562 C 4.09375 -2.703125 3.933594 -2.863281 3.792969 -2.953125 C 3.648438 -3.046875 3.507812 -3.109375 3.359375 -3.144531 C 3.25 -3.167969 3.078125 -3.179688 2.832031 -3.179688 L 1.734375 -3.179688 L 1.734375 0 L 0.785156 0 M 1.734375 -4 L 3.769531 -4 C 4.203125 -4 4.539062 -4.042969 4.785156 -4.132812 C 5.03125 -4.222656 5.214844 -4.367188 5.34375 -4.5625 C 5.46875 -4.761719 5.53125 -4.972656 5.53125 -5.203125 C 5.53125 -5.542969 5.410156 -5.820312 5.164062 -6.039062 C 4.917969 -6.257812 4.53125 -6.367188 4 -6.367188 L 1.734375 -6.367188 Z M 1.734375 -4 "/>
</g>
<g id="glyph-2-21">
<path d="M 0.761719 0 L 0.761719 -7.15625 L 1.734375 -7.15625 L 5.492188 -1.539062 L 5.492188 -7.15625 L 6.402344 -7.15625 L 6.402344 0 L 5.429688 0 L 1.671875 -5.625 L 1.671875 0 Z M 0.761719 0 "/>
</g>
<g id="glyph-2-22">
<path d="M -0.015625 0 L 2.734375 -7.15625 L 3.753906 -7.15625 L 6.683594 0 L 5.605469 0 L 4.769531 -2.167969 L 1.777344 -2.167969 L 0.992188 0 L -0.015625 0 M 2.050781 -2.9375 L 4.476562 -2.9375 L 3.730469 -4.921875 C 3.503906 -5.523438 3.332031 -6.019531 3.222656 -6.40625 C 3.132812 -5.945312 3.003906 -5.492188 2.835938 -5.039062 Z M 2.050781 -2.9375 "/>
</g>
<g id="glyph-2-23">
<path d="M 0.933594 0 L 0.933594 -7.15625 L 1.878906 -7.15625 L 1.878906 0 Z M 0.933594 0 "/>
</g>
<g id="glyph-2-24">
<path d="M 1.46875 0 L 0.65625 0 L 0.65625 -7.15625 L 1.53125 -7.15625 L 1.53125 -4.605469 C 1.90625 -5.070312 2.378906 -5.304688 2.953125 -5.304688 C 3.273438 -5.304688 3.574219 -5.238281 3.859375 -5.109375 C 4.144531 -4.980469 4.378906 -4.800781 4.5625 -4.566406 C 4.746094 -4.335938 4.890625 -4.054688 4.996094 -3.726562 C 5.097656 -3.398438 5.152344 -3.046875 5.152344 -2.671875 C 5.152344 -1.78125 4.929688 -1.09375 4.492188 -0.609375 C 4.054688 -0.125 3.523438 0.117188 2.910156 0.117188 C 2.296875 0.117188 1.816406 -0.136719 1.46875 -0.648438 L 1.46875 0 M 1.460938 -2.632812 C 1.460938 -2.011719 1.542969 -1.5625 1.714844 -1.285156 C 1.992188 -0.832031 2.363281 -0.605469 2.835938 -0.605469 C 3.222656 -0.605469 3.554688 -0.773438 3.832031 -1.105469 C 4.113281 -1.441406 4.253906 -1.9375 4.253906 -2.597656 C 4.253906 -3.273438 4.117188 -3.773438 3.851562 -4.097656 C 3.582031 -4.417969 3.257812 -4.578125 2.875 -4.578125 C 2.492188 -4.578125 2.160156 -4.414062 1.878906 -4.078125 C 1.601562 -3.746094 1.460938 -3.261719 1.460938 -2.632812 Z M 1.460938 -2.632812 "/>
</g>
<g id="glyph-2-25">
<path d="M 0.414062 -3.53125 C 0.414062 -4.375 0.503906 -5.058594 0.675781 -5.574219 C 0.851562 -6.089844 1.109375 -6.488281 1.453125 -6.765625 C 1.796875 -7.046875 2.226562 -7.1875 2.75 -7.1875 C 3.132812 -7.1875 3.46875 -7.109375 3.757812 -6.957031 C 4.050781 -6.800781 4.289062 -6.578125 4.476562 -6.285156 C 4.667969 -5.996094 4.8125 -5.640625 4.921875 -5.222656 C 5.03125 -4.804688 5.082031 -4.238281 5.082031 -3.53125 C 5.082031 -2.691406 4.996094 -2.011719 4.824219 -1.496094 C 4.652344 -0.980469 4.394531 -0.582031 4.050781 -0.300781 C 3.707031 -0.0195312 3.273438 0.121094 2.75 0.121094 C 2.058594 0.121094 1.515625 -0.125 1.125 -0.621094 C 0.652344 -1.214844 0.414062 -2.1875 0.414062 -3.53125 M 1.320312 -3.53125 C 1.320312 -2.355469 1.457031 -1.574219 1.730469 -1.183594 C 2.007812 -0.796875 2.34375 -0.601562 2.75 -0.601562 C 3.152344 -0.601562 3.492188 -0.796875 3.765625 -1.1875 C 4.042969 -1.578125 4.179688 -2.359375 4.179688 -3.53125 C 4.179688 -4.707031 4.042969 -5.492188 3.765625 -5.878906 C 3.492188 -6.265625 3.148438 -6.460938 2.738281 -6.460938 C 2.335938 -6.460938 2.011719 -6.289062 1.773438 -5.945312 C 1.46875 -5.511719 1.320312 -4.707031 1.320312 -3.53125 Z M 1.320312 -3.53125 "/>
</g>
<g id="glyph-2-26">
<path d="M 3.726562 0 L 2.847656 0 L 2.847656 -5.601562 C 2.636719 -5.398438 2.359375 -5.195312 2.015625 -4.996094 C 1.671875 -4.792969 1.363281 -4.640625 1.089844 -4.539062 L 1.089844 -5.390625 C 1.582031 -5.621094 2.011719 -5.902344 2.378906 -6.230469 C 2.746094 -6.558594 3.007812 -6.878906 3.160156 -7.1875 L 3.726562 -7.1875 Z M 3.726562 0 "/>
</g>
<g id="glyph-2-27">
<path d="M 5.035156 -0.84375 L 5.035156 0 L 0.304688 0 C 0.296875 -0.210938 0.332031 -0.414062 0.40625 -0.609375 C 0.527344 -0.933594 0.71875 -1.25 0.984375 -1.5625 C 1.25 -1.875 1.632812 -2.234375 2.132812 -2.648438 C 2.910156 -3.285156 3.4375 -3.789062 3.710938 -4.164062 C 3.984375 -4.535156 4.121094 -4.886719 4.121094 -5.21875 C 4.121094 -5.566406 3.996094 -5.863281 3.746094 -6.101562 C 3.5 -6.339844 3.171875 -6.460938 2.773438 -6.460938 C 2.351562 -6.460938 2.011719 -6.332031 1.757812 -6.078125 C 1.503906 -5.824219 1.375 -5.472656 1.371094 -5.023438 L 0.46875 -5.117188 C 0.53125 -5.789062 0.761719 -6.304688 1.167969 -6.65625 C 1.570312 -7.011719 2.113281 -7.1875 2.792969 -7.1875 C 3.480469 -7.1875 4.023438 -6.996094 4.421875 -6.617188 C 4.824219 -6.234375 5.023438 -5.761719 5.023438 -5.199219 C 5.023438 -4.914062 4.964844 -4.632812 4.847656 -4.355469 C 4.730469 -4.078125 4.535156 -3.789062 4.265625 -3.480469 C 3.992188 -3.175781 3.542969 -2.753906 2.910156 -2.222656 C 2.382812 -1.777344 2.042969 -1.480469 1.894531 -1.320312 C 1.746094 -1.164062 1.621094 -1.003906 1.523438 -0.84375 Z M 5.035156 -0.84375 "/>
</g>
<g id="glyph-2-28">
<path d="M 0.421875 -1.890625 L 1.296875 -2.007812 C 1.398438 -1.507812 1.570312 -1.148438 1.8125 -0.929688 C 2.054688 -0.710938 2.351562 -0.601562 2.699219 -0.601562 C 3.113281 -0.601562 3.460938 -0.742188 3.746094 -1.03125 C 4.03125 -1.316406 4.175781 -1.671875 4.175781 -2.09375 C 4.175781 -2.5 4.042969 -2.832031 3.78125 -3.09375 C 3.515625 -3.355469 3.179688 -3.484375 2.773438 -3.484375 C 2.609375 -3.484375 2.402344 -3.453125 2.152344 -3.390625 L 2.25 -4.160156 C 2.308594 -4.152344 2.355469 -4.148438 2.390625 -4.148438 C 2.765625 -4.148438 3.105469 -4.25 3.402344 -4.445312 C 3.703125 -4.640625 3.851562 -4.941406 3.851562 -5.347656 C 3.851562 -5.667969 3.742188 -5.9375 3.523438 -6.148438 C 3.308594 -6.359375 3.027344 -6.464844 2.679688 -6.464844 C 2.339844 -6.464844 2.054688 -6.359375 1.828125 -6.140625 C 1.597656 -5.929688 1.453125 -5.605469 1.386719 -5.175781 L 0.507812 -5.332031 C 0.617188 -5.921875 0.859375 -6.378906 1.242188 -6.703125 C 1.621094 -7.027344 2.09375 -7.1875 2.660156 -7.1875 C 3.050781 -7.1875 3.410156 -7.105469 3.742188 -6.9375 C 4.070312 -6.769531 4.320312 -6.539062 4.496094 -6.25 C 4.667969 -5.960938 4.757812 -5.652344 4.757812 -5.328125 C 4.757812 -5.019531 4.671875 -4.734375 4.507812 -4.484375 C 4.339844 -4.226562 4.09375 -4.027344 3.769531 -3.875 C 4.191406 -3.78125 4.523438 -3.578125 4.757812 -3.269531 C 4.992188 -2.960938 5.109375 -2.578125 5.109375 -2.113281 C 5.109375 -1.488281 4.878906 -0.960938 4.421875 -0.523438 C 3.96875 -0.0898438 3.390625 0.125 2.695312 0.125 C 2.066406 0.125 1.546875 -0.0585938 1.128906 -0.433594 C 0.714844 -0.808594 0.476562 -1.292969 0.421875 -1.890625 Z M 0.421875 -1.890625 "/>
</g>
<g id="glyph-2-29">
<path d="M 3.234375 0 L 3.234375 -1.714844 L 0.125 -1.714844 L 0.125 -2.519531 L 3.394531 -7.15625 L 4.109375 -7.15625 L 4.109375 -2.519531 L 5.078125 -2.519531 L 5.078125 -1.714844 L 4.109375 -1.714844 L 4.109375 0 L 3.234375 0 M 3.234375 -2.519531 L 3.234375 -5.746094 L 0.992188 -2.519531 Z M 3.234375 -2.519531 "/>
</g>
</g>
<clipPath id="clip-0">
<path clip-rule="nonzero" d="M 314 40 L 390 40 L 390 55 L 314 55 Z M 314 40 "/>
</clipPath>
<clipPath id="clip-1">
<path clip-rule="nonzero" d="M 240 33 L 353 33 L 353 55 L 240 55 Z M 240 33 "/>
</clipPath>
<clipPath id="clip-2">
<path clip-rule="nonzero" d="M 165 20 L 297 20 L 297 55 L 165 55 Z M 165 20 "/>
</clipPath>
<clipPath id="clip-3">
<path clip-rule="nonzero" d="M 91 2 L 232 2 L 232 55 L 91 55 Z M 91 2 "/>
</clipPath>
<clipPath id="clip-4">
<path clip-rule="nonzero" d="M 49 244 L 55 244 L 55 322 L 49 322 Z M 49 244 "/>
</clipPath>
<clipPath id="clip-5">
<path clip-rule="nonzero" d="M 36 168 L 55 168 L 55 284 L 36 284 Z M 36 168 "/>
</clipPath>
<clipPath id="clip-6">
<path clip-rule="nonzero" d="M 2 92 L 55 92 L 55 227 L 2 227 Z M 2 92 "/>
</clipPath>
</defs>
<rect x="-57.6" y="-43.2" width="691.2" height="518.4" fill="rgb(100%, 100%, 100%)" fill-opacity="1"/>
<g clip-path="url(#clip-0)">
<path fill="none" stroke-width="0.75" stroke-linecap="round" stroke-linejoin="round" stroke="rgb(0%, 0%, 0%)" stroke-opacity="1" stroke-miterlimit="10" d="M 314.554688 55 L 314.554688 40.625 L 388.714844 40.625 L 388.714844 55 "/>
</g>
<g clip-path="url(#clip-1)">
<path fill="none" stroke-width="0.75" stroke-linecap="round" stroke-linejoin="round" stroke="rgb(0%, 0%, 0%)" stroke-opacity="1" stroke-miterlimit="10" d="M 240.398438 55 L 240.398438 34.082031 L 351.636719 34.082031 L 351.636719 40.625 "/>
</g>
<g clip-path="url(#clip-2)">
<path fill="none" stroke-width="0.75" stroke-linecap="round" stroke-linejoin="round" stroke="rgb(0%, 0%, 0%)" stroke-opacity="1" stroke-miterlimit="10" d="M 166.238281 55 L 166.238281 21.035156 L 296.015625 21.035156 L 296.015625 34.082031 "/>
</g>
<g clip-path="url(#clip-3)">
<path fill="none" stroke-width="0.75" stroke-linecap="round" stroke-linejoin="round" stroke="rgb(0%, 0%, 0%)" stroke-opacity="1" stroke-miterlimit="10" d="M 92.078125 55 L 92.078125 2.617188 L 231.128906 2.617188 L 231.128906 21.035156 "/>
</g>
<g clip-path="url(#clip-4)">
<path fill="none" stroke-width="0.75" stroke-linecap="round" stroke-linejoin="round" stroke="rgb(0%, 0%, 0%)" stroke-opacity="1" stroke-miterlimit="10" d="M 55 244.90625 L 49.851562 244.90625 L 49.851562 320.871094 L 55 320.871094 "/>
</g>
<g clip-path="url(#clip-5)">
<path fill="none" stroke-width="0.75" stroke-linecap="round" stroke-linejoin="round" stroke="rgb(0%, 0%, 0%)" stroke-opacity="1" stroke-miterlimit="10" d="M 55 168.945312 L 36.851562 168.945312 L 36.851562 282.886719 L 49.851562 282.886719 "/>
</g>
<g clip-path="url(#clip-6)">
<path fill="none" stroke-width="0.75" stroke-linecap="round" stroke-linejoin="round" stroke="rgb(0%, 0%, 0%)" stroke-opacity="1" stroke-miterlimit="10" d="M 55 92.980469 L 2.617188 92.980469 L 2.617188 225.917969 L 36.851562 225.917969 "/>
</g>
<path fill-rule="nonzero" fill="rgb(100%, 96.078431%, 94.117647%)" fill-opacity="1" stroke-width="0.75" stroke-linecap="round" stroke-linejoin="round" stroke="rgb(60%, 60%, 60%)" stroke-opacity="1" stroke-miterlimit="10" d="M 55 130.960938 L 129.160156 130.960938 L 129.160156 55 L 55 55 Z M 55 130.960938 "/>
<path fill-rule="nonzero" fill="rgb(100%, 96.078431%, 94.117647%)" fill-opacity="1" stroke-width="0.75" stroke-linecap="round" stroke-linejoin="round" stroke="rgb(60%, 60%, 60%)" stroke-opacity="1" stroke-miterlimit="10" d="M 55 206.925781 L 129.160156 206.925781 L 129.160156 130.964844 L 55 130.964844 Z M 55 206.925781 "/>
<path fill-rule="nonzero" fill="rgb(100%, 96.078431%, 94.117647%)" fill-opacity="1" stroke-width="0.75" stroke-linecap="round" stroke-linejoin="round" stroke="rgb(60%, 60%, 60%)" stroke-opacity="1" stroke-miterlimit="10" d="M 55 282.886719 L 129.160156 282.886719 L 129.160156 206.925781 L 55 206.925781 Z M 55 282.886719 "/>
<path fill-rule="nonzero" fill="rgb(100%, 96.078431%, 94.117647%)" fill-opacity="1" stroke-width="0.75" stroke-linecap="round" stroke-linejoin="round" stroke="rgb(60%, 60%, 60%)" stroke-opacity="1" stroke-miterlimit="10" d="M 55 358.851562 L 129.160156 358.851562 L 129.160156 282.890625 L 55 282.890625 Z M 55 358.851562 "/>
<path fill-rule="nonzero" fill="rgb(40.392157%, 0%, 5.098039%)" fill-opacity="1" stroke-width="0.75" stroke-linecap="round" stroke-linejoin="round" stroke="rgb(60%, 60%, 60%)" stroke-opacity="1" stroke-miterlimit="10" d="M 129.160156 130.960938 L 203.320312 130.960938 L 203.320312 55 L 129.160156 55 Z M 129.160156 130.960938 "/>
<path fill-rule="nonzero" fill="rgb(99.607843%, 92.54902%, 89.803922%)" fill-opacity="1" stroke-width="0.75" stroke-linecap="round" stroke-linejoin="round" stroke="rgb(60%, 60%, 60%)" stroke-opacity="1" stroke-miterlimit="10" d="M 129.160156 206.925781 L 203.320312 206.925781 L 203.320312 130.964844 L 129.160156 130.964844 Z M 129.160156 206.925781 "/>
<path fill-rule="nonzero" fill="rgb(100%, 96.078431%, 94.117647%)" fill-opacity="1" stroke-width="0.75" stroke-linecap="round" stroke-linejoin="round" stroke="rgb(60%, 60%, 60%)" stroke-opacity="1" stroke-miterlimit="10" d="M 129.160156 282.886719 L 203.320312 282.886719 L 203.320312 206.925781 L 129.160156 206.925781 Z M 129.160156 282.886719 "/>
<path fill-rule="nonzero" fill="rgb(100%, 96.078431%, 94.117647%)" fill-opacity="1" stroke-width="0.75" stroke-linecap="round" stroke-linejoin="round" stroke="rgb(60%, 60%, 60%)" stroke-opacity="1" stroke-miterlimit="10" d="M 129.160156 358.851562 L 203.320312 358.851562 L 203.320312 282.890625 L 129.160156 282.890625 Z M 129.160156 358.851562 "/>
<path fill-rule="nonzero" fill="rgb(74.117647%, 15.686275%, 14.117647%)" fill-opacity="1" stroke-width="0.75" stroke-linecap="round" stroke-linejoin="round" stroke="rgb(60%, 60%, 60%)" stroke-opacity="1" stroke-miterlimit="10" d="M 203.316406 130.960938 L 277.476562 130.960938 L 277.476562 55 L 203.316406 55 Z M 203.316406 130.960938 "/>
<path fill-rule="nonzero" fill="rgb(88.627451%, 31.372549%, 22.745098%)" fill-opacity="1" stroke-width="0.75" stroke-linecap="round" stroke-linejoin="round" stroke="rgb(60%, 60%, 60%)" stroke-opacity="1" stroke-miterlimit="10" d="M 203.316406 206.925781 L 277.476562 206.925781 L 277.476562 130.964844 L 203.316406 130.964844 Z M 203.316406 206.925781 "/>
<path fill-rule="nonzero" fill="rgb(100%, 96.078431%, 94.117647%)" fill-opacity="1" stroke-width="0.75" stroke-linecap="round" stroke-linejoin="round" stroke="rgb(60%, 60%, 60%)" stroke-opacity="1" stroke-miterlimit="10" d="M 203.316406 282.886719 L 277.476562 282.886719 L 277.476562 206.925781 L 203.316406 206.925781 Z M 203.316406 282.886719 "/>
<path fill-rule="nonzero" fill="rgb(99.215686%, 75.686275%, 70.196078%)" fill-opacity="1" stroke-width="0.75" stroke-linecap="round" stroke-linejoin="round" stroke="rgb(60%, 60%, 60%)" stroke-opacity="1" stroke-miterlimit="10" d="M 203.316406 358.851562 L 277.476562 358.851562 L 277.476562 282.890625 L 203.316406 282.890625 Z M 203.316406 358.851562 "/>
<path fill-rule="nonzero" fill="rgb(67.843137%, 9.411765%, 10.196078%)" fill-opacity="1" stroke-width="0.75" stroke-linecap="round" stroke-linejoin="round" stroke="rgb(60%, 60%, 60%)" stroke-opacity="1" stroke-miterlimit="10" d="M 277.476562 130.960938 L 351.636719 130.960938 L 351.636719 55 L 277.476562 55 Z M 277.476562 130.960938 "/>
<path fill-rule="nonzero" fill="rgb(99.215686%, 72.54902%, 65.882353%)" fill-opacity="1" stroke-width="0.75" stroke-linecap="round" stroke-linejoin="round" stroke="rgb(60%, 60%, 60%)" stroke-opacity="1" stroke-miterlimit="10" d="M 277.476562 206.925781 L 351.636719 206.925781 L 351.636719 130.964844 L 277.476562 130.964844 Z M 277.476562 206.925781 "/>
<path fill-rule="nonzero" fill="rgb(100%, 96.078431%, 94.117647%)" fill-opacity="1" stroke-width="0.75" stroke-linecap="round" stroke-linejoin="round" stroke="rgb(60%, 60%, 60%)" stroke-opacity="1" stroke-miterlimit="10" d="M 277.476562 282.886719 L 351.636719 282.886719 L 351.636719 206.925781 L 277.476562 206.925781 Z M 277.476562 282.886719 "/>
<path fill-rule="nonzero" fill="rgb(99.607843%, 89.019608%, 85.882353%)" fill-opacity="1" stroke-width="0.75" stroke-linecap="round" stroke-linejoin="round" stroke="rgb(60%, 60%, 60%)" stroke-opacity="1" stroke-miterlimit="10" d="M 277.476562 358.851562 L 351.636719 358.851562 L 351.636719 282.890625 L 277.476562 282.890625 Z M 277.476562 358.851562 "/>
<path fill-rule="nonzero" fill="rgb(96.862745%, 40%, 27.843137%)" fill-opacity="1" stroke-width="0.75" stroke-linecap="round" stroke-linejoin="round" stroke="rgb(60%, 60%, 60%)" stroke-opacity="1" stroke-miterlimit="10" d="M 351.636719 130.960938 L 425.796875 130.960938 L 425.796875 55 L 351.636719 55 Z M 351.636719 130.960938 "/>
<path fill-rule="nonzero" fill="rgb(99.215686%, 79.215686%, 74.117647%)" fill-opacity="1" stroke-width="0.75" stroke-linecap="round" stroke-linejoin="round" stroke="rgb(60%, 60%, 60%)" stroke-opacity="1" stroke-miterlimit="10" d="M 351.636719 206.925781 L 425.796875 206.925781 L 425.796875 130.964844 L 351.636719 130.964844 Z M 351.636719 206.925781 "/>
<path fill-rule="nonzero" fill="rgb(100%, 96.078431%, 94.117647%)" fill-opacity="1" stroke-width="0.75" stroke-linecap="round" stroke-linejoin="round" stroke="rgb(60%, 60%, 60%)" stroke-opacity="1" stroke-miterlimit="10" d="M 351.636719 282.886719 L 425.796875 282.886719 L 425.796875 206.925781 L 351.636719 206.925781 Z M 351.636719 282.886719 "/>
<path fill-rule="nonzero" fill="rgb(100%, 96.078431%, 94.117647%)" fill-opacity="1" stroke-width="0.75" stroke-linecap="round" stroke-linejoin="round" stroke="rgb(60%, 60%, 60%)" stroke-opacity="1" stroke-miterlimit="10" d="M 351.636719 358.851562 L 425.796875 358.851562 L 425.796875 282.890625 L 351.636719 282.890625 Z M 351.636719 358.851562 "/>
<g fill="rgb(0%, 0%, 0%)" fill-opacity="1">
<use xlink:href="#glyph-0-0" x="89.851562" y="96.34375"/>
</g>
<g fill="rgb(0%, 0%, 0%)" fill-opacity="1">
<use xlink:href="#glyph-0-1" x="89.851562" y="172.308594"/>
</g>
<g fill="rgb(0%, 0%, 0%)" fill-opacity="1">
<use xlink:href="#glyph-0-0" x="89.851562" y="248.269531"/>
</g>
<g fill="rgb(0%, 0%, 0%)" fill-opacity="1">
<use xlink:href="#glyph-0-0" x="89.851562" y="324.234375"/>
</g>
<g fill="rgb(0%, 0%, 0%)" fill-opacity="1">
<use xlink:href="#glyph-0-2" x="159.566406" y="96.34375"/>
<use xlink:href="#glyph-0-0" x="164.015625" y="96.34375"/>
<use xlink:href="#glyph-0-3" x="168.464844" y="96.34375"/>
</g>
<g fill="rgb(0%, 0%, 0%)" fill-opacity="1">
<use xlink:href="#glyph-0-4" x="161.789062" y="172.308594"/>
<use xlink:href="#glyph-0-2" x="166.238281" y="172.308594"/>
</g>
<g fill="rgb(0%, 0%, 0%)" fill-opacity="1">
<use xlink:href="#glyph-0-0" x="164.011719" y="248.269531"/>
</g>
<g fill="rgb(0%, 0%, 0%)" fill-opacity="1">
<use xlink:href="#glyph-0-3" x="164.011719" y="324.234375"/>
</g>
<g fill="rgb(0%, 0%, 0%)" fill-opacity="1">
<use xlink:href="#glyph-0-1" x="233.726562" y="96.34375"/>
<use xlink:href="#glyph-0-5" x="238.175781" y="96.34375"/>
<use xlink:href="#glyph-0-4" x="242.625" y="96.34375"/>
</g>
<g fill="rgb(0%, 0%, 0%)" fill-opacity="1">
<use xlink:href="#glyph-0-4" x="233.726562" y="172.308594"/>
<use xlink:href="#glyph-0-6" x="238.175781" y="172.308594"/>
<use xlink:href="#glyph-0-7" x="242.625" y="172.308594"/>
</g>
<g fill="rgb(0%, 0%, 0%)" fill-opacity="1">
<use xlink:href="#glyph-0-0" x="238.171875" y="248.269531"/>
</g>
<g fill="rgb(0%, 0%, 0%)" fill-opacity="1">
<use xlink:href="#glyph-0-2" x="235.949219" y="324.234375"/>
<use xlink:href="#glyph-0-8" x="240.398438" y="324.234375"/>
</g>
<g fill="rgb(0%, 0%, 0%)" fill-opacity="1">
<use xlink:href="#glyph-0-1" x="307.882812" y="96.34375"/>
<use xlink:href="#glyph-0-9" x="312.332031" y="96.34375"/>
<use xlink:href="#glyph-0-9" x="316.78125" y="96.34375"/>
</g>
<g fill="rgb(0%, 0%, 0%)" fill-opacity="1">
<use xlink:href="#glyph-0-7" x="310.105469" y="172.308594"/>
<use xlink:href="#glyph-0-0" x="314.554688" y="172.308594"/>
</g>
<g fill="rgb(0%, 0%, 0%)" fill-opacity="1">
<use xlink:href="#glyph-0-0" x="312.328125" y="248.269531"/>
</g>
<g fill="rgb(0%, 0%, 0%)" fill-opacity="1">
<use xlink:href="#glyph-0-1" x="310.105469" y="324.234375"/>
<use xlink:href="#glyph-0-4" x="314.554688" y="324.234375"/>
</g>
<g fill="rgb(0%, 0%, 0%)" fill-opacity="1">
<use xlink:href="#glyph-0-4" x="382.042969" y="96.34375"/>
<use xlink:href="#glyph-0-2" x="386.492188" y="96.34375"/>
<use xlink:href="#glyph-0-9" x="390.941406" y="96.34375"/>
</g>
<g fill="rgb(0%, 0%, 0%)" fill-opacity="1">
<use xlink:href="#glyph-0-2" x="384.265625" y="172.308594"/>
<use xlink:href="#glyph-0-2" x="388.714844" y="172.308594"/>
</g>
<g fill="rgb(0%, 0%, 0%)" fill-opacity="1">
<use xlink:href="#glyph-0-0" x="386.488281" y="248.269531"/>
</g>
<g fill="rgb(0%, 0%, 0%)" fill-opacity="1">
<use xlink:href="#glyph-0-6" x="386.488281" y="324.234375"/>
</g>
<g fill="rgb(0%, 0%, 0%)" fill-opacity="1">
<use xlink:href="#glyph-1-0" x="40.46875" y="425"/>
<use xlink:href="#glyph-1-1" x="45.185097" y="420.283653"/>
<use xlink:href="#glyph-1-2" x="47.149666" y="418.319084"/>
<use xlink:href="#glyph-1-3" x="52.649769" y="412.818981"/>
<use xlink:href="#glyph-1-4" x="57.756268" y="407.712482"/>
<use xlink:href="#glyph-1-5" x="62.472615" y="402.996135"/>
<use xlink:href="#glyph-1-1" x="67.579114" y="397.889636"/>
<use xlink:href="#glyph-1-6" x="69.543683" y="395.925067"/>
<use xlink:href="#glyph-1-7" x="74.26003" y="391.20872"/>
<use xlink:href="#glyph-1-8" x="76.61475" y="388.854"/>
<use xlink:href="#glyph-1-9" x="80.547341" y="384.921409"/>
<use xlink:href="#glyph-1-10" x="84.479932" y="380.988818"/>
<use xlink:href="#glyph-1-11" x="88.412523" y="377.056227"/>
<use xlink:href="#glyph-1-9" x="89.983488" y="375.485262"/>
<use xlink:href="#glyph-1-8" x="93.916079" y="371.552671"/>
</g>
<g fill="rgb(0%, 0%, 0%)" fill-opacity="1">
<use xlink:href="#glyph-1-12" x="112.667969" y="426.960937"/>
<use xlink:href="#glyph-1-13" x="117.774467" y="421.854439"/>
<use xlink:href="#glyph-1-14" x="121.707058" y="417.921848"/>
<use xlink:href="#glyph-1-13" x="125.639649" y="413.989257"/>
<use xlink:href="#glyph-1-9" x="129.57224" y="410.056666"/>
<use xlink:href="#glyph-1-15" x="133.504831" y="406.124075"/>
<use xlink:href="#glyph-1-16" x="137.824121" y="401.804785"/>
<use xlink:href="#glyph-1-17" x="140.178842" y="399.450064"/>
<use xlink:href="#glyph-1-9" x="144.111433" y="395.517473"/>
<use xlink:href="#glyph-1-18" x="148.044024" y="391.584882"/>
<use xlink:href="#glyph-1-19" x="151.579558" y="388.049349"/>
<use xlink:href="#glyph-1-13" x="153.544127" y="386.084779"/>
<use xlink:href="#glyph-1-16" x="157.476718" y="382.152188"/>
<use xlink:href="#glyph-1-20" x="159.831439" y="379.797468"/>
<use xlink:href="#glyph-1-8" x="165.721693" y="373.907213"/>
<use xlink:href="#glyph-1-16" x="169.654284" y="369.974622"/>
</g>
<g fill="rgb(0%, 0%, 0%)" fill-opacity="1">
<use xlink:href="#glyph-1-21" x="226.125" y="387.664062"/>
<use xlink:href="#glyph-1-17" x="231.231499" y="382.557564"/>
<use xlink:href="#glyph-1-22" x="235.16409" y="378.624973"/>
<use xlink:href="#glyph-1-11" x="237.128659" y="376.660404"/>
<use xlink:href="#glyph-1-23" x="238.699624" y="375.089439"/>
<use xlink:href="#glyph-1-8" x="242.235157" y="371.553905"/>
</g>
<g fill="rgb(0%, 0%, 0%)" fill-opacity="1">
<use xlink:href="#glyph-1-24" x="277.878906" y="410.066406"/>
<use xlink:href="#glyph-1-8" x="282.595253" y="405.350059"/>
<use xlink:href="#glyph-1-25" x="286.527844" y="401.417468"/>
<use xlink:href="#glyph-1-22" x="290.063378" y="397.881934"/>
<use xlink:href="#glyph-1-13" x="292.027947" y="395.917365"/>
<use xlink:href="#glyph-1-16" x="295.960538" y="391.984774"/>
<use xlink:href="#glyph-1-0" x="298.315259" y="389.630054"/>
<use xlink:href="#glyph-1-26" x="303.031606" y="384.913707"/>
<use xlink:href="#glyph-1-11" x="306.964197" y="380.981116"/>
<use xlink:href="#glyph-1-27" x="308.535162" y="379.410151"/>
<use xlink:href="#glyph-1-14" x="310.106126" y="377.839186"/>
<use xlink:href="#glyph-1-8" x="314.038717" y="373.906595"/>
<use xlink:href="#glyph-1-16" x="317.971308" y="369.974004"/>
</g>
<g fill="rgb(0%, 0%, 0%)" fill-opacity="1">
<use xlink:href="#glyph-1-28" x="363.042969" y="399.0625"/>
<use xlink:href="#glyph-1-8" x="368.543072" y="393.562397"/>
<use xlink:href="#glyph-1-9" x="372.475663" y="389.629806"/>
<use xlink:href="#glyph-1-6" x="376.408254" y="385.697215"/>
<use xlink:href="#glyph-1-25" x="381.124601" y="380.980868"/>
<use xlink:href="#glyph-1-16" x="384.660135" y="377.445334"/>
<use xlink:href="#glyph-1-11" x="387.014855" y="375.090613"/>
<use xlink:href="#glyph-1-29" x="388.58582" y="373.519649"/>
<use xlink:href="#glyph-1-22" x="392.518411" y="369.587058"/>
</g>
<g fill="rgb(0%, 0%, 0%)" fill-opacity="1">
<use xlink:href="#glyph-2-0" x="428.792969" y="97.058594"/>
<use xlink:href="#glyph-2-1" x="435.462891" y="97.058594"/>
<use xlink:href="#glyph-2-2" x="438.792969" y="97.058594"/>
<use xlink:href="#glyph-2-3" x="444.354492" y="97.058594"/>
<use xlink:href="#glyph-2-4" x="449.354492" y="97.058594"/>
<use xlink:href="#glyph-2-1" x="454.916016" y="97.058594"/>
<use xlink:href="#glyph-2-5" x="458.246094" y="97.058594"/>
<use xlink:href="#glyph-2-2" x="463.246094" y="97.058594"/>
<use xlink:href="#glyph-2-6" x="468.807617" y="97.058594"/>
<use xlink:href="#glyph-2-7" x="471.585938" y="97.058594"/>
<use xlink:href="#glyph-2-8" x="473.807617" y="97.058594"/>
<use xlink:href="#glyph-2-9" x="478.807617" y="97.058594"/>
<use xlink:href="#glyph-2-10" x="481.585938" y="97.058594"/>
<use xlink:href="#glyph-2-11" x="488.255859" y="97.058594"/>
<use xlink:href="#glyph-2-12" x="490.477539" y="97.058594"/>
<use xlink:href="#glyph-2-13" x="496.039062" y="97.058594"/>
<use xlink:href="#glyph-2-12" x="504.369141" y="97.058594"/>
<use xlink:href="#glyph-2-14" x="509.930664" y="97.058594"/>
<use xlink:href="#glyph-2-6" x="515.492188" y="97.058594"/>
<use xlink:href="#glyph-2-15" x="518.270508" y="97.058594"/>
</g>
<g fill="rgb(0%, 0%, 0%)" fill-opacity="1">
<use xlink:href="#glyph-2-0" x="428.792969" y="173.023438"/>
<use xlink:href="#glyph-2-2" x="435.462891" y="173.023438"/>
<use xlink:href="#glyph-2-11" x="441.024414" y="173.023438"/>
<use xlink:href="#glyph-2-5" x="443.246094" y="173.023438"/>
<use xlink:href="#glyph-2-4" x="448.246094" y="173.023438"/>
<use xlink:href="#glyph-2-16" x="453.807617" y="173.023438"/>
<use xlink:href="#glyph-2-12" x="459.369141" y="173.023438"/>
<use xlink:href="#glyph-2-14" x="464.930664" y="173.023438"/>
<use xlink:href="#glyph-2-5" x="470.492188" y="173.023438"/>
<use xlink:href="#glyph-2-11" x="475.492188" y="173.023438"/>
<use xlink:href="#glyph-2-4" x="477.713867" y="173.023438"/>
<use xlink:href="#glyph-2-6" x="483.275391" y="173.023438"/>
<use xlink:href="#glyph-2-7" x="486.053711" y="173.023438"/>
<use xlink:href="#glyph-2-2" x="488.275391" y="173.023438"/>
<use xlink:href="#glyph-2-14" x="493.836914" y="173.023438"/>
<use xlink:href="#glyph-2-9" x="499.398438" y="173.023438"/>
<use xlink:href="#glyph-2-17" x="502.176758" y="173.023438"/>
<use xlink:href="#glyph-2-7" x="508.84668" y="173.023438"/>
<use xlink:href="#glyph-2-18" x="511.068359" y="173.023438"/>
<use xlink:href="#glyph-2-14" x="516.629883" y="173.023438"/>
<use xlink:href="#glyph-2-4" x="522.191406" y="173.023438"/>
<use xlink:href="#glyph-2-11" x="527.75293" y="173.023438"/>
<use xlink:href="#glyph-2-15" x="529.974609" y="173.023438"/>
</g>
<g fill="rgb(0%, 0%, 0%)" fill-opacity="1">
<use xlink:href="#glyph-2-17" x="428.792969" y="248.984375"/>
<use xlink:href="#glyph-2-19" x="435.462891" y="248.984375"/>
<use xlink:href="#glyph-2-11" x="441.024414" y="248.984375"/>
<use xlink:href="#glyph-2-7" x="443.246094" y="248.984375"/>
<use xlink:href="#glyph-2-8" x="445.467773" y="248.984375"/>
<use xlink:href="#glyph-2-7" x="450.467773" y="248.984375"/>
<use xlink:href="#glyph-2-14" x="452.689453" y="248.984375"/>
<use xlink:href="#glyph-2-18" x="458.250977" y="248.984375"/>
<use xlink:href="#glyph-2-9" x="463.8125" y="248.984375"/>
<use xlink:href="#glyph-2-17" x="466.59082" y="248.984375"/>
<use xlink:href="#glyph-2-7" x="473.260742" y="248.984375"/>
<use xlink:href="#glyph-2-6" x="475.482422" y="248.984375"/>
<use xlink:href="#glyph-2-12" x="478.260742" y="248.984375"/>
<use xlink:href="#glyph-2-15" x="483.822266" y="248.984375"/>
</g>
<g fill="rgb(0%, 0%, 0%)" fill-opacity="1">
<use xlink:href="#glyph-2-13" x="428.792969" y="324.949219"/>
<use xlink:href="#glyph-2-20" x="437.123047" y="324.949219"/>
<use xlink:href="#glyph-2-21" x="444.344727" y="324.949219"/>
<use xlink:href="#glyph-2-22" x="451.566406" y="324.949219"/>
<use xlink:href="#glyph-2-9" x="458.236328" y="324.949219"/>
<use xlink:href="#glyph-2-23" x="461.014648" y="324.949219"/>
<use xlink:href="#glyph-2-14" x="463.792969" y="324.949219"/>
<use xlink:href="#glyph-2-15" x="469.354492" y="324.949219"/>
<use xlink:href="#glyph-2-6" x="474.354492" y="324.949219"/>
<use xlink:href="#glyph-2-4" x="477.132812" y="324.949219"/>
<use xlink:href="#glyph-2-24" x="482.694336" y="324.949219"/>
<use xlink:href="#glyph-2-7" x="488.255859" y="324.949219"/>
<use xlink:href="#glyph-2-11" x="490.477539" y="324.949219"/>
<use xlink:href="#glyph-2-7" x="492.699219" y="324.949219"/>
<use xlink:href="#glyph-2-6" x="494.920898" y="324.949219"/>
<use xlink:href="#glyph-2-5" x="497.699219" y="324.949219"/>
</g>
<path fill-rule="nonzero" fill="rgb(100%, 96.078431%, 94.117647%)" fill-opacity="1" d="M 541.976562 205 L 551.976562 205 L 551.976562 202 L 541.976562 202 Z M 541.976562 205 "/>
<path fill-rule="nonzero" fill="rgb(99.607843%, 92.54902%, 89.803922%)" fill-opacity="1" d="M 541.976562 202 L 551.976562 202 L 551.976562 199 L 541.976562 199 Z M 541.976562 202 "/>
<path fill-rule="nonzero" fill="rgb(99.607843%, 89.019608%, 85.882353%)" fill-opacity="1" d="M 541.976562 199 L 551.976562 199 L 551.976562 196 L 541.976562 196 Z M 541.976562 199 "/>
<path fill-rule="nonzero" fill="rgb(99.607843%, 85.882353%, 81.960784%)" fill-opacity="1" d="M 541.976562 196 L 551.976562 196 L 551.976562 193 L 541.976562 193 Z M 541.976562 196 "/>
<path fill-rule="nonzero" fill="rgb(99.607843%, 82.352941%, 78.039216%)" fill-opacity="1" d="M 541.976562 193 L 551.976562 193 L 551.976562 190 L 541.976562 190 Z M 541.976562 193 "/>
<path fill-rule="nonzero" fill="rgb(99.215686%, 79.215686%, 74.117647%)" fill-opacity="1" d="M 541.976562 190 L 551.976562 190 L 551.976562 187 L 541.976562 187 Z M 541.976562 190 "/>
<path fill-rule="nonzero" fill="rgb(99.215686%, 75.686275%, 70.196078%)" fill-opacity="1" d="M 541.976562 187 L 551.976562 187 L 551.976562 184 L 541.976562 184 Z M 541.976562 187 "/>
<path fill-rule="nonzero" fill="rgb(99.215686%, 72.54902%, 65.882353%)" fill-opacity="1" d="M 541.976562 184 L 551.976562 184 L 551.976562 181 L 541.976562 181 Z M 541.976562 184 "/>
<path fill-rule="nonzero" fill="rgb(99.215686%, 69.019608%, 61.960784%)" fill-opacity="1" d="M 541.976562 181 L 551.976562 181 L 551.976562 178 L 541.976562 178 Z M 541.976562 181 "/>
<path fill-rule="nonzero" fill="rgb(98.823529%, 65.882353%, 58.039216%)" fill-opacity="1" d="M 541.976562 178 L 551.976562 178 L 551.976562 175 L 541.976562 175 Z M 541.976562 178 "/>
<path fill-rule="nonzero" fill="rgb(98.823529%, 62.352941%, 54.117647%)" fill-opacity="1" d="M 541.976562 175 L 551.976562 175 L 551.976562 172 L 541.976562 172 Z M 541.976562 175 "/>
<path fill-rule="nonzero" fill="rgb(98.823529%, 59.215686%, 50.196078%)" fill-opacity="1" d="M 541.976562 172 L 551.976562 172 L 551.976562 169 L 541.976562 169 Z M 541.976562 172 "/>
<path fill-rule="nonzero" fill="rgb(98.823529%, 55.686275%, 46.27451%)" fill-opacity="1" d="M 541.976562 169 L 551.976562 169 L 551.976562 166 L 541.976562 166 Z M 541.976562 169 "/>
<path fill-rule="nonzero" fill="rgb(98.431373%, 52.54902%, 41.960784%)" fill-opacity="1" d="M 541.976562 166 L 551.976562 166 L 551.976562 163 L 541.976562 163 Z M 541.976562 166 "/>
<path fill-rule="nonzero" fill="rgb(98.431373%, 49.019608%, 38.039216%)" fill-opacity="1" d="M 541.976562 163 L 551.976562 163 L 551.976562 160 L 541.976562 160 Z M 541.976562 163 "/>
<path fill-rule="nonzero" fill="rgb(98.431373%, 45.882353%, 34.117647%)" fill-opacity="1" d="M 541.976562 160 L 551.976562 160 L 551.976562 157 L 541.976562 157 Z M 541.976562 160 "/>
<path fill-rule="nonzero" fill="rgb(98.431373%, 42.352941%, 30.196078%)" fill-opacity="1" d="M 541.976562 157 L 551.976562 157 L 551.976562 154 L 541.976562 154 Z M 541.976562 157 "/>
<path fill-rule="nonzero" fill="rgb(96.862745%, 40%, 27.843137%)" fill-opacity="1" d="M 541.976562 154 L 551.976562 154 L 551.976562 151 L 541.976562 151 Z M 541.976562 154 "/>
<path fill-rule="nonzero" fill="rgb(94.901961%, 37.647059%, 26.666667%)" fill-opacity="1" d="M 541.976562 151 L 551.976562 151 L 551.976562 148 L 541.976562 148 Z M 541.976562 151 "/>
<path fill-rule="nonzero" fill="rgb(92.54902%, 35.686275%, 25.490196%)" fill-opacity="1" d="M 541.976562 148 L 551.976562 148 L 551.976562 145 L 541.976562 145 Z M 541.976562 148 "/>
<path fill-rule="nonzero" fill="rgb(90.588235%, 33.333333%, 24.313725%)" fill-opacity="1" d="M 541.976562 145 L 551.976562 145 L 551.976562 142 L 541.976562 142 Z M 541.976562 145 "/>
<path fill-rule="nonzero" fill="rgb(88.627451%, 31.372549%, 22.745098%)" fill-opacity="1" d="M 541.976562 142 L 551.976562 142 L 551.976562 139 L 541.976562 139 Z M 541.976562 142 "/>
<path fill-rule="nonzero" fill="rgb(86.666667%, 29.019608%, 21.568627%)" fill-opacity="1" d="M 541.976562 139 L 551.976562 139 L 551.976562 136 L 541.976562 136 Z M 541.976562 139 "/>
<path fill-rule="nonzero" fill="rgb(84.313725%, 26.666667%, 20.392157%)" fill-opacity="1" d="M 541.976562 136 L 551.976562 136 L 551.976562 133 L 541.976562 133 Z M 541.976562 136 "/>
<path fill-rule="nonzero" fill="rgb(82.352941%, 24.705882%, 19.215686%)" fill-opacity="1" d="M 541.976562 133 L 551.976562 133 L 551.976562 130 L 541.976562 130 Z M 541.976562 133 "/>
<path fill-rule="nonzero" fill="rgb(80.392157%, 22.352941%, 17.647059%)" fill-opacity="1" d="M 541.976562 130 L 551.976562 130 L 551.976562 127 L 541.976562 127 Z M 541.976562 130 "/>
<path fill-rule="nonzero" fill="rgb(78.431373%, 20.392157%, 16.470588%)" fill-opacity="1" d="M 541.976562 127 L 551.976562 127 L 551.976562 124 L 541.976562 124 Z M 541.976562 127 "/>
<path fill-rule="nonzero" fill="rgb(76.078431%, 18.039216%, 15.294118%)" fill-opacity="1" d="M 541.976562 124 L 551.976562 124 L 551.976562 121 L 541.976562 121 Z M 541.976562 124 "/>
<path fill-rule="nonzero" fill="rgb(74.117647%, 15.686275%, 14.117647%)" fill-opacity="1" d="M 541.976562 121 L 551.976562 121 L 551.976562 118 L 541.976562 118 Z M 541.976562 121 "/>
<path fill-rule="nonzero" fill="rgb(72.156863%, 13.72549%, 12.54902%)" fill-opacity="1" d="M 541.976562 118 L 551.976562 118 L 551.976562 115 L 541.976562 115 Z M 541.976562 118 "/>
<path fill-rule="nonzero" fill="rgb(70.196078%, 11.372549%, 11.372549%)" fill-opacity="1" d="M 541.976562 115 L 551.976562 115 L 551.976562 112 L 541.976562 112 Z M 541.976562 115 "/>
<path fill-rule="nonzero" fill="rgb(67.843137%, 9.411765%, 10.196078%)" fill-opacity="1" d="M 541.976562 112 L 551.976562 112 L 551.976562 109 L 541.976562 109 Z M 541.976562 112 "/>
<path fill-rule="nonzero" fill="rgb(65.882353%, 7.058824%, 9.019608%)" fill-opacity="1" d="M 541.976562 109 L 551.976562 109 L 551.976562 106 L 541.976562 106 Z M 541.976562 109 "/>
<path fill-rule="nonzero" fill="rgb(63.921569%, 5.490196%, 7.843137%)" fill-opacity="1" d="M 541.976562 106 L 551.976562 106 L 551.976562 103 L 541.976562 103 Z M 541.976562 106 "/>
<path fill-rule="nonzero" fill="rgb(62.352941%, 5.098039%, 7.843137%)" fill-opacity="1" d="M 541.976562 103 L 551.976562 103 L 551.976562 100 L 541.976562 100 Z M 541.976562 103 "/>
<path fill-rule="nonzero" fill="rgb(61.176471%, 4.705882%, 7.45098%)" fill-opacity="1" d="M 541.976562 100 L 551.976562 100 L 551.976562 97 L 541.976562 97 Z M 541.976562 100 "/>
<path fill-rule="nonzero" fill="rgb(59.607843%, 4.313725%, 7.45098%)" fill-opacity="1" d="M 541.976562 97 L 551.976562 97 L 551.976562 94 L 541.976562 94 Z M 541.976562 97 "/>
<path fill-rule="nonzero" fill="rgb(58.039216%, 4.313725%, 7.058824%)" fill-opacity="1" d="M 541.976562 94 L 551.976562 94 L 551.976562 91 L 541.976562 91 Z M 541.976562 94 "/>
<path fill-rule="nonzero" fill="rgb(56.470588%, 3.921569%, 7.058824%)" fill-opacity="1" d="M 541.976562 91 L 551.976562 91 L 551.976562 88 L 541.976562 88 Z M 541.976562 91 "/>
<path fill-rule="nonzero" fill="rgb(54.901961%, 3.529412%, 6.666667%)" fill-opacity="1" d="M 541.976562 88 L 551.976562 88 L 551.976562 85 L 541.976562 85 Z M 541.976562 88 "/>
<path fill-rule="nonzero" fill="rgb(53.72549%, 3.137255%, 6.666667%)" fill-opacity="1" d="M 541.976562 85 L 551.976562 85 L 551.976562 82 L 541.976562 82 Z M 541.976562 85 "/>
<path fill-rule="nonzero" fill="rgb(52.156863%, 2.745098%, 6.27451%)" fill-opacity="1" d="M 541.976562 82 L 551.976562 82 L 551.976562 79 L 541.976562 79 Z M 541.976562 82 "/>
<path fill-rule="nonzero" fill="rgb(50.588235%, 2.352941%, 6.27451%)" fill-opacity="1" d="M 541.976562 79 L 551.976562 79 L 551.976562 76 L 541.976562 76 Z M 541.976562 79 "/>
<path fill-rule="nonzero" fill="rgb(49.019608%, 1.960784%, 5.882353%)" fill-opacity="1" d="M 541.976562 76 L 551.976562 76 L 551.976562 73 L 541.976562 73 Z M 541.976562 76 "/>
<path fill-rule="nonzero" fill="rgb(47.45098%, 1.568627%, 5.882353%)" fill-opacity="1" d="M 541.976562 73 L 551.976562 73 L 551.976562 70 L 541.976562 70 Z M 541.976562 73 "/>
<path fill-rule="nonzero" fill="rgb(46.27451%, 1.176471%, 5.490196%)" fill-opacity="1" d="M 541.976562 70 L 551.976562 70 L 551.976562 67 L 541.976562 67 Z M 541.976562 70 "/>
<path fill-rule="nonzero" fill="rgb(44.705882%, 0.784314%, 5.490196%)" fill-opacity="1" d="M 541.976562 67 L 551.976562 67 L 551.976562 64 L 541.976562 64 Z M 541.976562 67 "/>
<path fill-rule="nonzero" fill="rgb(43.137255%, 0.392157%, 5.098039%)" fill-opacity="1" d="M 541.976562 64 L 551.976562 64 L 551.976562 61 L 541.976562 61 Z M 541.976562 64 "/>
<path fill-rule="nonzero" fill="rgb(41.568627%, 0%, 5.098039%)" fill-opacity="1" d="M 541.976562 61 L 551.976562 61 L 551.976562 58 L 541.976562 58 Z M 541.976562 61 "/>
<path fill-rule="nonzero" fill="rgb(40.392157%, 0%, 5.098039%)" fill-opacity="1" d="M 541.976562 58 L 551.976562 58 L 551.976562 55 L 541.976562 55 Z M 541.976562 58 "/>
<g fill="rgb(0%, 0%, 0%)" fill-opacity="1">
<use xlink:href="#glyph-2-25" x="555.976562" y="209.078125"/>
</g>
<g fill="rgb(0%, 0%, 0%)" fill-opacity="1">
<use xlink:href="#glyph-2-26" x="555.976562" y="172.3125"/>
<use xlink:href="#glyph-2-25" x="561.538086" y="172.3125"/>
<use xlink:href="#glyph-2-25" x="567.099609" y="172.3125"/>
</g>
<g fill="rgb(0%, 0%, 0%)" fill-opacity="1">
<use xlink:href="#glyph-2-27" x="555.976562" y="135.550781"/>
<use xlink:href="#glyph-2-25" x="561.538086" y="135.550781"/>
<use xlink:href="#glyph-2-25" x="567.099609" y="135.550781"/>
</g>
<g fill="rgb(0%, 0%, 0%)" fill-opacity="1">
<use xlink:href="#glyph-2-28" x="555.976562" y="98.785156"/>
<use xlink:href="#glyph-2-25" x="561.538086" y="98.785156"/>
<use xlink:href="#glyph-2-25" x="567.099609" y="98.785156"/>
</g>
<g fill="rgb(0%, 0%, 0%)" fill-opacity="1">
<use xlink:href="#glyph-2-29" x="555.976562" y="62.019531"/>
<use xlink:href="#glyph-2-25" x="561.538086" y="62.019531"/>
<use xlink:href="#glyph-2-25" x="567.099609" y="62.019531"/>
</g>
</svg>
